{
  "asset": {
    "generator": "glTF-Transform v4.2.1",
    "version": "2.0"
  },
  "accessors": [
    {
      "type": "VEC3",
      "componentType": 5126,
      "count": 28,
      "bufferView": 0,
      "byteOffset": 0
    },
    {
      "type": "VEC3",
      "componentType": 5126,
      "count": 28,
      "max": [
        2425.75,
        2036.280029296875,
        163.6529998779297
      ],
      "min": [
        2425.75,
        1965.719970703125,
        93.09320068359375
      ],
      "bufferView": 0,
      "byteOffset": 12
    },
    {
      "type": "VEC2",
      "componentType": 5126,
      "count": 28,
      "bufferView": 0,
      "byteOffset": 24
    },
    {
      "type": "SCALAR",
      "componentType": 5125,
      "count": 78,
      "bufferView": 1,
      "byteOffset": 0
    },
    {
      "type": "SCALAR",
      "componentType": 5125,
      "count": 1770,
      "bufferView": 1,
      "byteOffset": 312
    },
    {
      "type": "SCALAR",
      "componentType": 5125,
      "count": 18096,
      "bufferView": 1,
      "byteOffset": 7392
    },
    {
      "type": "SCALAR",
      "componentType": 5125,
      "count": 45,
      "bufferView": 1,
      "byteOffset": 79776
    },
    {
      "type": "SCALAR",
      "componentType": 5125,
      "count": 36,
      "bufferView": 1,
      "byteOffset": 79956
    },
    {
      "type": "SCALAR",
      "componentType": 5125,
      "count": 909,
      "bufferView": 1,
      "byteOffset": 80100
    },
    {
      "type": "SCALAR",
      "componentType": 5125,
      "count": 210,
      "bufferView": 1,
      "byteOffset": 83736
    },
    {
      "type": "SCALAR",
      "componentType": 5125,
      "count": 1443,
      "bufferView": 1,
      "byteOffset": 84576
    },
    {
      "type": "SCALAR",
      "componentType": 5125,
      "count": 9996,
      "bufferView": 1,
      "byteOffset": 90348
    },
    {
      "type": "SCALAR",
      "componentType": 5125,
      "count": 9951,
      "bufferView": 1,
      "byteOffset": 130332
    },
    {
      "type": "SCALAR",
      "componentType": 5125,
      "count": 9849,
      "bufferView": 1,
      "byteOffset": 170136
    },
    {
      "type": "SCALAR",
      "componentType": 5125,
      "count": 9834,
      "bufferView": 1,
      "byteOffset": 209532
    },
    {
      "type": "SCALAR",
      "componentType": 5125,
      "count": 9834,
      "bufferView": 1,
      "byteOffset": 248868
    },
    {
      "type": "SCALAR",
      "componentType": 5125,
      "count": 9834,
      "bufferView": 1,
      "byteOffset": 288204
    },
    {
      "type": "SCALAR",
      "componentType": 5125,
      "count": 9834,
      "bufferView": 1,
      "byteOffset": 327540
    },
    {
      "type": "SCALAR",
      "componentType": 5125,
      "count": 9834,
      "bufferView": 1,
      "byteOffset": 366876
    },
    {
      "type": "SCALAR",
      "componentType": 5125,
      "count": 9834,
      "bufferView": 1,
      "byteOffset": 406212
    },
    {
      "type": "SCALAR",
      "componentType": 5125,
      "count": 9834,
      "bufferView": 1,
      "byteOffset": 445548
    },
    {
      "type": "SCALAR",
      "componentType": 5125,
      "count": 9834,
      "bufferView": 1,
      "byteOffset": 484884
    },
    {
      "type": "SCALAR",
      "componentType": 5125,
      "count": 9519,
      "bufferView": 1,
      "byteOffset": 524220
    },
    {
      "type": "SCALAR",
      "componentType": 5125,
      "count": 9888,
      "bufferView": 1,
      "byteOffset": 562296
    },
    {
      "type": "SCALAR",
      "componentType": 5125,
      "count": 9888,
      "bufferView": 1,
      "byteOffset": 601848
    },
    {
      "type": "SCALAR",
      "componentType": 5125,
      "count": 9888,
      "bufferView": 1,
      "byteOffset": 641400
    },
    {
      "type": "SCALAR",
      "componentType": 5125,
      "count": 9888,
      "bufferView": 1,
      "byteOffset": 680952
    },
    {
      "type": "SCALAR",
      "componentType": 5125,
      "count": 9888,
      "bufferView": 1,
      "byteOffset": 720504
    },
    {
      "type": "SCALAR",
      "componentType": 5125,
      "count": 9888,
      "bufferView": 1,
      "byteOffset": 760056
    },
    {
      "type": "SCALAR",
      "componentType": 5125,
      "count": 9888,
      "bufferView": 1,
      "byteOffset": 799608
    },
    {
      "type": "SCALAR",
      "componentType": 5125,
      "count": 9906,
      "bufferView": 1,
      "byteOffset": 839160
    },
    {
      "type": "SCALAR",
      "componentType": 5125,
      "count": 9936,
      "bufferView": 1,
      "byteOffset": 878784
    },
    {
      "type": "SCALAR",
      "componentType": 5125,
      "count": 9936,
      "bufferView": 1,
      "byteOffset": 918528
    },
    {
      "type": "SCALAR",
      "componentType": 5125,
      "count": 9936,
      "bufferView": 1,
      "byteOffset": 958272
    },
    {
      "type": "SCALAR",
      "componentType": 5125,
      "count": 9936,
      "bufferView": 1,
      "byteOffset": 998016
    },
    {
      "type": "SCALAR",
      "componentType": 5125,
      "count": 9936,
      "bufferView": 1,
      "byteOffset": 1037760
    },
    {
      "type": "SCALAR",
      "componentType": 5125,
      "count": 9936,
      "bufferView": 1,
      "byteOffset": 1077504
    },
    {
      "type": "SCALAR",
      "componentType": 5125,
      "count": 9936,
      "bufferView": 1,
      "byteOffset": 1117248
    },
    {
      "type": "SCALAR",
      "componentType": 5125,
      "count": 9936,
      "bufferView": 1,
      "byteOffset": 1156992
    },
    {
      "type": "SCALAR",
      "componentType": 5125,
      "count": 9936,
      "bufferView": 1,
      "byteOffset": 1196736
    },
    {
      "type": "SCALAR",
      "componentType": 5125,
      "count": 9954,
      "bufferView": 1,
      "byteOffset": 1236480
    },
    {
      "type": "SCALAR",
      "componentType": 5125,
      "count": 9984,
      "bufferView": 1,
      "byteOffset": 1276296
    },
    {
      "type": "SCALAR",
      "componentType": 5125,
      "count": 8637,
      "bufferView": 1,
      "byteOffset": 1316232
    },
    {
      "type": "SCALAR",
      "componentType": 5125,
      "count": 7983,
      "bufferView": 1,
      "byteOffset": 1350780
    },
    {
      "type": "SCALAR",
      "componentType": 5125,
      "count": 7983,
      "bufferView": 1,
      "byteOffset": 1382712
    },
    {
      "type": "SCALAR",
      "componentType": 5125,
      "count": 7983,
      "bufferView": 1,
      "byteOffset": 1414644
    },
    {
      "type": "SCALAR",
      "componentType": 5125,
      "count": 8091,
      "bufferView": 1,
      "byteOffset": 1446576
    },
    {
      "type": "SCALAR",
      "componentType": 5125,
      "count": 8091,
      "bufferView": 1,
      "byteOffset": 1478940
    },
    {
      "type": "SCALAR",
      "componentType": 5125,
      "count": 8091,
      "bufferView": 1,
      "byteOffset": 1511304
    },
    {
      "type": "SCALAR",
      "componentType": 5125,
      "count": 8118,
      "bufferView": 1,
      "byteOffset": 1543668
    },
    {
      "type": "SCALAR",
      "componentType": 5125,
      "count": 8118,
      "bufferView": 1,
      "byteOffset": 1576140
    },
    {
      "type": "SCALAR",
      "componentType": 5125,
      "count": 8118,
      "bufferView": 1,
      "byteOffset": 1608612
    },
    {
      "type": "SCALAR",
      "componentType": 5125,
      "count": 6666,
      "bufferView": 1,
      "byteOffset": 1641084
    },
    {
      "type": "SCALAR",
      "componentType": 5125,
      "count": 71544,
      "bufferView": 1,
      "byteOffset": 1667748
    },
    {
      "type": "SCALAR",
      "componentType": 5125,
      "count": 4857,
      "bufferView": 1,
      "byteOffset": 1953924
    },
    {
      "type": "SCALAR",
      "componentType": 5125,
      "count": 54,
      "bufferView": 1,
      "byteOffset": 1973352
    },
    {
      "type": "SCALAR",
      "componentType": 5125,
      "count": 5250,
      "bufferView": 1,
      "byteOffset": 1973568
    },
    {
      "type": "SCALAR",
      "componentType": 5125,
      "count": 5412,
      "bufferView": 1,
      "byteOffset": 1994568
    },
    {
      "type": "SCALAR",
      "componentType": 5125,
      "count": 126,
      "bufferView": 1,
      "byteOffset": 2016216
    },
    {
      "type": "SCALAR",
      "componentType": 5125,
      "count": 2922,
      "bufferView": 1,
      "byteOffset": 2016720
    },
    {
      "type": "SCALAR",
      "componentType": 5125,
      "count": 9912,
      "bufferView": 1,
      "byteOffset": 2028408
    },
    {
      "type": "SCALAR",
      "componentType": 5125,
      "count": 9984,
      "bufferView": 1,
      "byteOffset": 2068056
    },
    {
      "type": "SCALAR",
      "componentType": 5125,
      "count": 9063,
      "bufferView": 1,
      "byteOffset": 2107992
    },
    {
      "type": "SCALAR",
      "componentType": 5125,
      "count": 7914,
      "bufferView": 1,
      "byteOffset": 2144244
    },
    {
      "type": "SCALAR",
      "componentType": 5125,
      "count": 5991,
      "bufferView": 1,
      "byteOffset": 2175900
    },
    {
      "type": "SCALAR",
      "componentType": 5125,
      "count": 20457,
      "bufferView": 1,
      "byteOffset": 2199864
    },
    {
      "type": "VEC3",
      "componentType": 5126,
      "count": 1031,
      "bufferView": 2,
      "byteOffset": 0
    },
    {
      "type": "VEC3",
      "componentType": 5126,
      "count": 1031,
      "max": [
        3460.22998046875,
        3622,
        630
      ],
      "min": [
        2443.5,
        2608.89990234375,
        581.6389770507812
      ],
      "bufferView": 2,
      "byteOffset": 12
    },
    {
      "type": "VEC2",
      "componentType": 5126,
      "count": 1031,
      "bufferView": 2,
      "byteOffset": 24
    },
    {
      "type": "VEC3",
      "componentType": 5126,
      "count": 11204,
      "bufferView": 3,
      "byteOffset": 0
    },
    {
      "type": "VEC3",
      "componentType": 5126,
      "count": 11204,
      "max": [
        3449.6201171875,
        3560.929931640625,
        546
      ],
      "min": [
        2410.5,
        1839,
        66
      ],
      "bufferView": 3,
      "byteOffset": 12
    },
    {
      "type": "VEC2",
      "componentType": 5126,
      "count": 11204,
      "bufferView": 3,
      "byteOffset": 24
    },
    {
      "type": "VEC3",
      "componentType": 5126,
      "count": 25,
      "bufferView": 4,
      "byteOffset": 0
    },
    {
      "type": "VEC3",
      "componentType": 5126,
      "count": 25,
      "max": [
        3235.3798828125,
        2977.7900390625,
        166.19900512695312
      ],
      "min": [
        3047.669921875,
        2816.639892578125,
        162.03500366210938
      ],
      "bufferView": 4,
      "byteOffset": 12
    },
    {
      "type": "VEC2",
      "componentType": 5126,
      "count": 25,
      "bufferView": 4,
      "byteOffset": 24
    },
    {
      "type": "VEC3",
      "componentType": 5126,
      "count": 24,
      "bufferView": 5,
      "byteOffset": 0
    },
    {
      "type": "VEC3",
      "componentType": 5126,
      "count": 24,
      "max": [
        2767.949951171875,
        2933.31005859375,
        460.5
      ],
      "min": [
        2613.72998046875,
        2779.22998046875,
        156
      ],
      "bufferView": 5,
      "byteOffset": 12
    },
    {
      "type": "VEC2",
      "componentType": 5126,
      "count": 24,
      "bufferView": 5,
      "byteOffset": 24
    },
    {
      "type": "VEC3",
      "componentType": 5126,
      "count": 281,
      "bufferView": 6,
      "byteOffset": 0
    },
    {
      "type": "VEC3",
      "componentType": 5126,
      "count": 281,
      "max": [
        3085.06005859375,
        3414.409912109375,
        246.5
      ],
      "min": [
        2274.2099609375,
        2704.5,
        246
      ],
      "bufferView": 6,
      "byteOffset": 12
    },
    {
      "type": "VEC2",
      "componentType": 5126,
      "count": 281,
      "bufferView": 6,
      "byteOffset": 24
    },
    {
      "type": "VEC3",
      "componentType": 5126,
      "count": 120,
      "bufferView": 7,
      "byteOffset": 0
    },
    {
      "type": "VEC3",
      "componentType": 5126,
      "count": 120,
      "max": [
        2505.179931640625,
        3342.679931640625,
        174
      ],
      "min": [
        2345.820068359375,
        3183.320068359375,
        146.5
      ],
      "bufferView": 7,
      "byteOffset": 12
    },
    {
      "type": "VEC2",
      "componentType": 5126,
      "count": 120,
      "bufferView": 7,
      "byteOffset": 24
    },
    {
      "type": "VEC3",
      "componentType": 5126,
      "count": 755,
      "bufferView": 8,
      "byteOffset": 0
    },
    {
      "type": "VEC3",
      "componentType": 5126,
      "count": 755,
      "max": [
        2417.18994140625,
        3926.75,
        581.5
      ],
      "min": [
        1761.81005859375,
        3386.1201171875,
        66
      ],
      "bufferView": 8,
      "byteOffset": 12
    },
    {
      "type": "VEC2",
      "componentType": 5126,
      "count": 755,
      "bufferView": 8,
      "byteOffset": 24
    },
    {
      "type": "VEC3",
      "componentType": 5126,
      "count": 5712,
      "bufferView": 9,
      "byteOffset": 0
    },
    {
      "type": "VEC3",
      "componentType": 5126,
      "count": 5712,
      "max": [
        4022.639892578125,
        3956,
        168
      ],
      "min": [
        1411.280029296875,
        2018.68994140625,
        66
      ],
      "bufferView": 9,
      "byteOffset": 12
    },
    {
      "type": "VEC2",
      "componentType": 5126,
      "count": 5712,
      "bufferView": 9,
      "byteOffset": 24
    },
    {
      "type": "VEC3",
      "componentType": 5126,
      "count": 5630,
      "bufferView": 10,
      "byteOffset": 0
    },
    {
      "type": "VEC3",
      "componentType": 5126,
      "count": 5630,
      "max": [
        3983.5,
        3953,
        784.7020263671875
      ],
      "min": [
        1735.5,
        1723.949951171875,
        57
      ],
      "bufferView": 10,
      "byteOffset": 12
    },
    {
      "type": "VEC2",
      "componentType": 5126,
      "count": 5630,
      "bufferView": 10,
      "byteOffset": 24
    },
    {
      "type": "VEC3",
      "componentType": 5126,
      "count": 5123,
      "bufferView": 11,
      "byteOffset": 0
    },
    {
      "type": "VEC3",
      "componentType": 5126,
      "count": 5123,
      "max": [
        3268.010009765625,
        3459,
        582.051025390625
      ],
      "min": [
        2275.5,
        2349.81005859375,
        68
      ],
      "bufferView": 11,
      "byteOffset": 12
    },
    {
      "type": "VEC2",
      "componentType": 5126,
      "count": 5123,
      "bufferView": 11,
      "byteOffset": 24
    },
    {
      "type": "VEC3",
      "componentType": 5126,
      "count": 5082,
      "bufferView": 12,
      "byteOffset": 0
    },
    {
      "type": "VEC3",
      "componentType": 5126,
      "count": 5082,
      "max": [
        2917.5,
        2506.179931640625,
        136.1179962158203
      ],
      "min": [
        2633.64990234375,
        2349.81005859375,
        70.84249877929688
      ],
      "bufferView": 12,
      "byteOffset": 12
    },
    {
      "type": "VEC2",
      "componentType": 5126,
      "count": 5082,
      "bufferView": 12,
      "byteOffset": 24
    },
    {
      "type": "VEC3",
      "componentType": 5126,
      "count": 5082,
      "bufferView": 13,
      "byteOffset": 0
    },
    {
      "type": "VEC3",
      "componentType": 5126,
      "count": 5082,
      "max": [
        2917.5,
        2506.179931640625,
        136.1179962158203
      ],
      "min": [
        2746.860107421875,
        2349.81005859375,
        70.84249877929688
      ],
      "bufferView": 13,
      "byteOffset": 12
    },
    {
      "type": "VEC2",
      "componentType": 5126,
      "count": 5082,
      "bufferView": 13,
      "byteOffset": 24
    },
    {
      "type": "VEC3",
      "componentType": 5126,
      "count": 5082,
      "bufferView": 14,
      "byteOffset": 0
    },
    {
      "type": "VEC3",
      "componentType": 5126,
      "count": 5082,
      "max": [
        2917.5,
        2506.179931640625,
        136.1179962158203
      ],
      "min": [
        2679.8798828125,
        2349.81005859375,
        70.84249877929688
      ],
      "bufferView": 14,
      "byteOffset": 12
    },
    {
      "type": "VEC2",
      "componentType": 5126,
      "count": 5082,
      "bufferView": 14,
      "byteOffset": 24
    },
    {
      "type": "VEC3",
      "componentType": 5126,
      "count": 5082,
      "bufferView": 15,
      "byteOffset": 0
    },
    {
      "type": "VEC3",
      "componentType": 5126,
      "count": 5082,
      "max": [
        2917.5,
        2506.179931640625,
        136.1179962158203
      ],
      "min": [
        2746.860107421875,
        2349.81005859375,
        70.84249877929688
      ],
      "bufferView": 15,
      "byteOffset": 12
    },
    {
      "type": "VEC2",
      "componentType": 5126,
      "count": 5082,
      "bufferView": 15,
      "byteOffset": 24
    },
    {
      "type": "VEC3",
      "componentType": 5126,
      "count": 5082,
      "bufferView": 16,
      "byteOffset": 0
    },
    {
      "type": "VEC3",
      "componentType": 5126,
      "count": 5082,
      "max": [
        2917.5,
        2506.179931640625,
        136.1179962158203
      ],
      "min": [
        2612.909912109375,
        2349.81005859375,
        70.84249877929688
      ],
      "bufferView": 16,
      "byteOffset": 12
    },
    {
      "type": "VEC2",
      "componentType": 5126,
      "count": 5082,
      "bufferView": 16,
      "byteOffset": 24
    },
    {
      "type": "VEC3",
      "componentType": 5126,
      "count": 5082,
      "bufferView": 17,
      "byteOffset": 0
    },
    {
      "type": "VEC3",
      "componentType": 5126,
      "count": 5082,
      "max": [
        2917.5,
        2506.179931640625,
        136.1179962158203
      ],
      "min": [
        2612.909912109375,
        2349.81005859375,
        70.84249877929688
      ],
      "bufferView": 17,
      "byteOffset": 12
    },
    {
      "type": "VEC2",
      "componentType": 5126,
      "count": 5082,
      "bufferView": 17,
      "byteOffset": 24
    },
    {
      "type": "VEC3",
      "componentType": 5126,
      "count": 5082,
      "bufferView": 18,
      "byteOffset": 0
    },
    {
      "type": "VEC3",
      "componentType": 5126,
      "count": 5082,
      "max": [
        2917.5,
        2506.179931640625,
        136.1179962158203
      ],
      "min": [
        2612.909912109375,
        2388.820068359375,
        70.84249877929688
      ],
      "bufferView": 18,
      "byteOffset": 12
    },
    {
      "type": "VEC2",
      "componentType": 5126,
      "count": 5082,
      "bufferView": 18,
      "byteOffset": 24
    },
    {
      "type": "VEC3",
      "componentType": 5126,
      "count": 5082,
      "bufferView": 19,
      "byteOffset": 0
    },
    {
      "type": "VEC3",
      "componentType": 5126,
      "count": 5082,
      "max": [
        2896.75,
        2506.179931640625,
        136.1179962158203
      ],
      "min": [
        2612.909912109375,
        2349.81005859375,
        70.84249877929688
      ],
      "bufferView": 19,
      "byteOffset": 12
    },
    {
      "type": "VEC2",
      "componentType": 5126,
      "count": 5082,
      "bufferView": 19,
      "byteOffset": 24
    },
    {
      "type": "VEC3",
      "componentType": 5126,
      "count": 4887,
      "bufferView": 20,
      "byteOffset": 0
    },
    {
      "type": "VEC3",
      "componentType": 5126,
      "count": 4887,
      "max": [
        2917.5,
        2506.179931640625,
        136.1179962158203
      ],
      "min": [
        2612.909912109375,
        2349.81005859375,
        70.84249877929688
      ],
      "bufferView": 20,
      "byteOffset": 12
    },
    {
      "type": "VEC2",
      "componentType": 5126,
      "count": 4887,
      "bufferView": 20,
      "byteOffset": 24
    },
    {
      "type": "VEC3",
      "componentType": 5126,
      "count": 5024,
      "bufferView": 21,
      "byteOffset": 0
    },
    {
      "type": "VEC3",
      "componentType": 5126,
      "count": 5024,
      "max": [
        2850.89990234375,
        2506.139892578125,
        136.07899475097656
      ],
      "min": [
        2746.47998046875,
        2388.860107421875,
        85.94090270996094
      ],
      "bufferView": 21,
      "byteOffset": 12
    },
    {
      "type": "VEC2",
      "componentType": 5126,
      "count": 5024,
      "bufferView": 21,
      "byteOffset": 24
    },
    {
      "type": "VEC3",
      "componentType": 5126,
      "count": 5024,
      "bufferView": 22,
      "byteOffset": 0
    },
    {
      "type": "VEC3",
      "componentType": 5126,
      "count": 5024,
      "max": [
        2850.89990234375,
        2506.139892578125,
        136.07899475097656
      ],
      "min": [
        2746.47998046875,
        2349.840087890625,
        85.94090270996094
      ],
      "bufferView": 22,
      "byteOffset": 12
    },
    {
      "type": "VEC2",
      "componentType": 5126,
      "count": 5024,
      "bufferView": 22,
      "byteOffset": 24
    },
    {
      "type": "VEC3",
      "componentType": 5126,
      "count": 5024,
      "bufferView": 23,
      "byteOffset": 0
    },
    {
      "type": "VEC3",
      "componentType": 5126,
      "count": 5024,
      "max": [
        2850.89990234375,
        2506.139892578125,
        136.07899475097656
      ],
      "min": [
        2813.449951171875,
        2349.840087890625,
        85.94090270996094
      ],
      "bufferView": 23,
      "byteOffset": 12
    },
    {
      "type": "VEC2",
      "componentType": 5126,
      "count": 5024,
      "bufferView": 23,
      "byteOffset": 24
    },
    {
      "type": "VEC3",
      "componentType": 5126,
      "count": 5024,
      "bufferView": 24,
      "byteOffset": 0
    },
    {
      "type": "VEC3",
      "componentType": 5126,
      "count": 5024,
      "max": [
        2850.89990234375,
        2506.139892578125,
        136.07899475097656
      ],
      "min": [
        2746.47998046875,
        2349.840087890625,
        85.94090270996094
      ],
      "bufferView": 24,
      "byteOffset": 12
    },
    {
      "type": "VEC2",
      "componentType": 5126,
      "count": 5024,
      "bufferView": 24,
      "byteOffset": 24
    },
    {
      "type": "VEC3",
      "componentType": 5126,
      "count": 5024,
      "bufferView": 25,
      "byteOffset": 0
    },
    {
      "type": "VEC3",
      "componentType": 5126,
      "count": 5024,
      "max": [
        2850.89990234375,
        2506.139892578125,
        136.07899475097656
      ],
      "min": [
        2746.47998046875,
        2349.840087890625,
        85.94090270996094
      ],
      "bufferView": 25,
      "byteOffset": 12
    },
    {
      "type": "VEC2",
      "componentType": 5126,
      "count": 5024,
      "bufferView": 25,
      "byteOffset": 24
    },
    {
      "type": "VEC3",
      "componentType": 5126,
      "count": 5024,
      "bufferView": 26,
      "byteOffset": 0
    },
    {
      "type": "VEC3",
      "componentType": 5126,
      "count": 5024,
      "max": [
        2850.89990234375,
        2467.1298828125,
        136.07899475097656
      ],
      "min": [
        2746.47998046875,
        2349.840087890625,
        85.94090270996094
      ],
      "bufferView": 26,
      "byteOffset": 12
    },
    {
      "type": "VEC2",
      "componentType": 5126,
      "count": 5024,
      "bufferView": 26,
      "byteOffset": 24
    },
    {
      "type": "VEC3",
      "componentType": 5126,
      "count": 5024,
      "bufferView": 27,
      "byteOffset": 0
    },
    {
      "type": "VEC3",
      "componentType": 5126,
      "count": 5024,
      "max": [
        2850.89990234375,
        2506.139892578125,
        136.07899475097656
      ],
      "min": [
        2746.47998046875,
        2388.860107421875,
        85.94090270996094
      ],
      "bufferView": 27,
      "byteOffset": 12
    },
    {
      "type": "VEC2",
      "componentType": 5126,
      "count": 5024,
      "bufferView": 27,
      "byteOffset": 24
    },
    {
      "type": "VEC3",
      "componentType": 5126,
      "count": 5024,
      "bufferView": 28,
      "byteOffset": 0
    },
    {
      "type": "VEC3",
      "componentType": 5126,
      "count": 5024,
      "max": [
        2917.8798828125,
        2506.139892578125,
        136.07899475097656
      ],
      "min": [
        2746.47998046875,
        2388.860107421875,
        85.94090270996094
      ],
      "bufferView": 28,
      "byteOffset": 12
    },
    {
      "type": "VEC2",
      "componentType": 5126,
      "count": 5024,
      "bufferView": 28,
      "byteOffset": 24
    },
    {
      "type": "VEC3",
      "componentType": 5126,
      "count": 5024,
      "bufferView": 29,
      "byteOffset": 0
    },
    {
      "type": "VEC3",
      "componentType": 5126,
      "count": 5024,
      "max": [
        2917.8798828125,
        2506.139892578125,
        136.07899475097656
      ],
      "min": [
        2679.5,
        2349.840087890625,
        85.94090270996094
      ],
      "bufferView": 29,
      "byteOffset": 12
    },
    {
      "type": "VEC2",
      "componentType": 5126,
      "count": 5024,
      "bufferView": 29,
      "byteOffset": 24
    },
    {
      "type": "VEC3",
      "componentType": 5126,
      "count": 5024,
      "bufferView": 30,
      "byteOffset": 0
    },
    {
      "type": "VEC3",
      "componentType": 5126,
      "count": 5024,
      "max": [
        2917.8798828125,
        2467.1298828125,
        136.07899475097656
      ],
      "min": [
        2612.530029296875,
        2388.860107421875,
        85.94090270996094
      ],
      "bufferView": 30,
      "byteOffset": 12
    },
    {
      "type": "VEC2",
      "componentType": 5126,
      "count": 5024,
      "bufferView": 30,
      "byteOffset": 24
    },
    {
      "type": "VEC3",
      "componentType": 5126,
      "count": 5024,
      "bufferView": 31,
      "byteOffset": 0
    },
    {
      "type": "VEC3",
      "componentType": 5126,
      "count": 5024,
      "max": [
        2917.8798828125,
        2506.139892578125,
        136.07899475097656
      ],
      "min": [
        2612.530029296875,
        2388.860107421875,
        85.94090270996094
      ],
      "bufferView": 31,
      "byteOffset": 12
    },
    {
      "type": "VEC2",
      "componentType": 5126,
      "count": 5024,
      "bufferView": 31,
      "byteOffset": 24
    },
    {
      "type": "VEC3",
      "componentType": 5126,
      "count": 5024,
      "bufferView": 32,
      "byteOffset": 0
    },
    {
      "type": "VEC3",
      "componentType": 5126,
      "count": 5024,
      "max": [
        2649.97998046875,
        2506.139892578125,
        136.07899475097656
      ],
      "min": [
        2612.530029296875,
        2349.840087890625,
        85.94090270996094
      ],
      "bufferView": 32,
      "byteOffset": 12
    },
    {
      "type": "VEC2",
      "componentType": 5126,
      "count": 5024,
      "bufferView": 32,
      "byteOffset": 24
    },
    {
      "type": "VEC3",
      "componentType": 5126,
      "count": 5024,
      "bufferView": 33,
      "byteOffset": 0
    },
    {
      "type": "VEC3",
      "componentType": 5126,
      "count": 5024,
      "max": [
        2917.8798828125,
        2428.110107421875,
        136.07899475097656
      ],
      "min": [
        2612.530029296875,
        2349.840087890625,
        85.94090270996094
      ],
      "bufferView": 33,
      "byteOffset": 12
    },
    {
      "type": "VEC2",
      "componentType": 5126,
      "count": 5024,
      "bufferView": 33,
      "byteOffset": 24
    },
    {
      "type": "VEC3",
      "componentType": 5126,
      "count": 5024,
      "bufferView": 34,
      "byteOffset": 0
    },
    {
      "type": "VEC3",
      "componentType": 5126,
      "count": 5024,
      "max": [
        2917.8798828125,
        2467.1298828125,
        136.07899475097656
      ],
      "min": [
        2612.530029296875,
        2349.840087890625,
        85.94090270996094
      ],
      "bufferView": 34,
      "byteOffset": 12
    },
    {
      "type": "VEC2",
      "componentType": 5126,
      "count": 5024,
      "bufferView": 34,
      "byteOffset": 24
    },
    {
      "type": "VEC3",
      "componentType": 5126,
      "count": 5024,
      "bufferView": 35,
      "byteOffset": 0
    },
    {
      "type": "VEC3",
      "componentType": 5126,
      "count": 5024,
      "max": [
        2917.8798828125,
        2506.139892578125,
        136.07899475097656
      ],
      "min": [
        2679.5,
        2349.840087890625,
        85.94090270996094
      ],
      "bufferView": 35,
      "byteOffset": 12
    },
    {
      "type": "VEC2",
      "componentType": 5126,
      "count": 5024,
      "bufferView": 35,
      "byteOffset": 24
    },
    {
      "type": "VEC3",
      "componentType": 5126,
      "count": 5024,
      "bufferView": 36,
      "byteOffset": 0
    },
    {
      "type": "VEC3",
      "componentType": 5126,
      "count": 5024,
      "max": [
        2716.949951171875,
        2506.139892578125,
        136.07899475097656
      ],
      "min": [
        2612.530029296875,
        2349.840087890625,
        85.94090270996094
      ],
      "bufferView": 36,
      "byteOffset": 12
    },
    {
      "type": "VEC2",
      "componentType": 5126,
      "count": 5024,
      "bufferView": 36,
      "byteOffset": 24
    },
    {
      "type": "VEC3",
      "componentType": 5126,
      "count": 5024,
      "bufferView": 37,
      "byteOffset": 0
    },
    {
      "type": "VEC3",
      "componentType": 5126,
      "count": 5024,
      "max": [
        2716.949951171875,
        2467.010009765625,
        136.07899475097656
      ],
      "min": [
        2612.530029296875,
        2349.840087890625,
        85.94090270996094
      ],
      "bufferView": 37,
      "byteOffset": 12
    },
    {
      "type": "VEC2",
      "componentType": 5126,
      "count": 5024,
      "bufferView": 37,
      "byteOffset": 24
    },
    {
      "type": "VEC3",
      "componentType": 5126,
      "count": 5024,
      "bufferView": 38,
      "byteOffset": 0
    },
    {
      "type": "VEC3",
      "componentType": 5126,
      "count": 5024,
      "max": [
        2917.8798828125,
        2506.139892578125,
        136.07899475097656
      ],
      "min": [
        2679.5,
        2388.860107421875,
        85.94090270996094
      ],
      "bufferView": 38,
      "byteOffset": 12
    },
    {
      "type": "VEC2",
      "componentType": 5126,
      "count": 5024,
      "bufferView": 38,
      "byteOffset": 24
    },
    {
      "type": "VEC3",
      "componentType": 5126,
      "count": 5024,
      "bufferView": 39,
      "byteOffset": 0
    },
    {
      "type": "VEC3",
      "componentType": 5126,
      "count": 5024,
      "max": [
        2898.330078125,
        2506.139892578125,
        136.07899475097656
      ],
      "min": [
        2880.429931640625,
        2349.840087890625,
        85.94090270996094
      ],
      "bufferView": 39,
      "byteOffset": 12
    },
    {
      "type": "VEC2",
      "componentType": 5126,
      "count": 5024,
      "bufferView": 39,
      "byteOffset": 24
    },
    {
      "type": "VEC3",
      "componentType": 5126,
      "count": 3850,
      "bufferView": 40,
      "byteOffset": 0
    },
    {
      "type": "VEC3",
      "componentType": 5126,
      "count": 3850,
      "max": [
        3456.5,
        3636.159912109375,
        136.07899475097656
      ],
      "min": [
        1735.5,
        1845,
        66
      ],
      "bufferView": 40,
      "byteOffset": 12
    },
    {
      "type": "VEC2",
      "componentType": 5126,
      "count": 3850,
      "bufferView": 40,
      "byteOffset": 24
    },
    {
      "type": "VEC3",
      "componentType": 5126,
      "count": 4377,
      "bufferView": 41,
      "byteOffset": 0
    },
    {
      "type": "VEC3",
      "componentType": 5126,
      "count": 4377,
      "max": [
        1976.75,
        3637.469970703125,
        137.65199279785156
      ],
      "min": [
        1769.6500244140625,
        3472.97998046875,
        71.25499725341797
      ],
      "bufferView": 41,
      "byteOffset": 12
    },
    {
      "type": "VEC2",
      "componentType": 5126,
      "count": 4377,
      "bufferView": 41,
      "byteOffset": 24
    },
    {
      "type": "VEC3",
      "componentType": 5126,
      "count": 4377,
      "bufferView": 42,
      "byteOffset": 0
    },
    {
      "type": "VEC3",
      "componentType": 5126,
      "count": 4377,
      "max": [
        1976.75,
        3637.469970703125,
        186.33200073242188
      ],
      "min": [
        1769.6500244140625,
        3472.97998046875,
        119.93499755859375
      ],
      "bufferView": 42,
      "byteOffset": 12
    },
    {
      "type": "VEC2",
      "componentType": 5126,
      "count": 4377,
      "bufferView": 42,
      "byteOffset": 24
    },
    {
      "type": "VEC3",
      "componentType": 5126,
      "count": 4377,
      "bufferView": 43,
      "byteOffset": 0
    },
    {
      "type": "VEC3",
      "componentType": 5126,
      "count": 4377,
      "max": [
        1976.75,
        3637.469970703125,
        202.55799865722656
      ],
      "min": [
        1769.6500244140625,
        3472.97998046875,
        103.70800018310547
      ],
      "bufferView": 43,
      "byteOffset": 12
    },
    {
      "type": "VEC2",
      "componentType": 5126,
      "count": 4377,
      "bufferView": 43,
      "byteOffset": 24
    },
    {
      "type": "VEC3",
      "componentType": 5126,
      "count": 4437,
      "bufferView": 44,
      "byteOffset": 0
    },
    {
      "type": "VEC3",
      "componentType": 5126,
      "count": 4437,
      "max": [
        2411.610107421875,
        3836.4599609375,
        186.33200073242188
      ],
      "min": [
        2242.340087890625,
        3607.489990234375,
        87.48159790039062
      ],
      "bufferView": 44,
      "byteOffset": 12
    },
    {
      "type": "VEC2",
      "componentType": 5126,
      "count": 4437,
      "bufferView": 44,
      "byteOffset": 24
    },
    {
      "type": "VEC3",
      "componentType": 5126,
      "count": 4437,
      "bufferView": 45,
      "byteOffset": 0
    },
    {
      "type": "VEC3",
      "componentType": 5126,
      "count": 4437,
      "max": [
        2411.610107421875,
        3836.4599609375,
        202.55799865722656
      ],
      "min": [
        2242.340087890625,
        3607.489990234375,
        71.25499725341797
      ],
      "bufferView": 45,
      "byteOffset": 12
    },
    {
      "type": "VEC2",
      "componentType": 5126,
      "count": 4437,
      "bufferView": 45,
      "byteOffset": 24
    },
    {
      "type": "VEC3",
      "componentType": 5126,
      "count": 4437,
      "bufferView": 46,
      "byteOffset": 0
    },
    {
      "type": "VEC3",
      "componentType": 5126,
      "count": 4437,
      "max": [
        2411.610107421875,
        3836.4599609375,
        153.8780059814453
      ],
      "min": [
        2242.340087890625,
        3607.489990234375,
        119.93499755859375
      ],
      "bufferView": 46,
      "byteOffset": 12
    },
    {
      "type": "VEC2",
      "componentType": 5126,
      "count": 4437,
      "bufferView": 46,
      "byteOffset": 24
    },
    {
      "type": "VEC3",
      "componentType": 5126,
      "count": 4446,
      "bufferView": 47,
      "byteOffset": 0
    },
    {
      "type": "VEC3",
      "componentType": 5126,
      "count": 4446,
      "max": [
        2092.679931640625,
        3920.56005859375,
        202.55799865722656
      ],
      "min": [
        1942.760009765625,
        3674.81005859375,
        119.93499755859375
      ],
      "bufferView": 47,
      "byteOffset": 12
    },
    {
      "type": "VEC2",
      "componentType": 5126,
      "count": 4446,
      "bufferView": 47,
      "byteOffset": 24
    },
    {
      "type": "VEC3",
      "componentType": 5126,
      "count": 4446,
      "bufferView": 48,
      "byteOffset": 0
    },
    {
      "type": "VEC3",
      "componentType": 5126,
      "count": 4446,
      "max": [
        2092.679931640625,
        3920.56005859375,
        186.33200073242188
      ],
      "min": [
        1942.760009765625,
        3674.81005859375,
        71.25499725341797
      ],
      "bufferView": 48,
      "byteOffset": 12
    },
    {
      "type": "VEC2",
      "componentType": 5126,
      "count": 4446,
      "bufferView": 48,
      "byteOffset": 24
    },
    {
      "type": "VEC3",
      "componentType": 5126,
      "count": 4446,
      "bufferView": 49,
      "byteOffset": 0
    },
    {
      "type": "VEC3",
      "componentType": 5126,
      "count": 4446,
      "max": [
        2092.679931640625,
        3920.56005859375,
        170.10499572753906
      ],
      "min": [
        1942.760009765625,
        3674.81005859375,
        87.48159790039062
      ],
      "bufferView": 49,
      "byteOffset": 12
    },
    {
      "type": "VEC2",
      "componentType": 5126,
      "count": 4446,
      "bufferView": 49,
      "byteOffset": 24
    },
    {
      "type": "VEC3",
      "componentType": 5126,
      "count": 3098,
      "bufferView": 50,
      "byteOffset": 0
    },
    {
      "type": "VEC3",
      "componentType": 5126,
      "count": 3098,
      "max": [
        2530.489990234375,
        3361.989990234375,
        96.5
      ],
      "min": [
        2320.590087890625,
        3164.179931640625,
        66
      ],
      "bufferView": 50,
      "byteOffset": 12
    },
    {
      "type": "VEC2",
      "componentType": 5126,
      "count": 3098,
      "bufferView": 50,
      "byteOffset": 24
    },
    {
      "type": "VEC3",
      "componentType": 5126,
      "count": 34204,
      "bufferView": 51,
      "byteOffset": 0
    },
    {
      "type": "VEC3",
      "componentType": 5126,
      "count": 34204,
      "max": [
        4017.9599609375,
        3956,
        582
      ],
      "min": [
        1387.469970703125,
        1714.47998046875,
        -114
      ],
      "bufferView": 51,
      "byteOffset": 12
    },
    {
      "type": "VEC2",
      "componentType": 5126,
      "count": 34204,
      "bufferView": 51,
      "byteOffset": 24
    },
    {
      "type": "VEC3",
      "componentType": 5126,
      "count": 2726,
      "bufferView": 52,
      "byteOffset": 0
    },
    {
      "type": "VEC3",
      "componentType": 5126,
      "count": 2726,
      "max": [
        2405.570068359375,
        3914.56005859375,
        185.0229949951172
      ],
      "min": [
        1773.1400146484375,
        3482.72998046875,
        111.08100128173828
      ],
      "bufferView": 52,
      "byteOffset": 12
    },
    {
      "type": "VEC2",
      "componentType": 5126,
      "count": 2726,
      "bufferView": 52,
      "byteOffset": 24
    },
    {
      "type": "VEC3",
      "componentType": 5126,
      "count": 36,
      "bufferView": 53,
      "byteOffset": 0
    },
    {
      "type": "VEC3",
      "componentType": 5126,
      "count": 36,
      "max": [
        2402.39990234375,
        3912.800048828125,
        183.6999969482422
      ],
      "min": [
        1774.8299560546875,
        3484.02001953125,
        112.40399932861328
      ],
      "bufferView": 53,
      "byteOffset": 12
    },
    {
      "type": "VEC2",
      "componentType": 5126,
      "count": 36,
      "bufferView": 53,
      "byteOffset": 24
    },
    {
      "type": "VEC3",
      "componentType": 5126,
      "count": 2775,
      "bufferView": 54,
      "byteOffset": 0
    },
    {
      "type": "VEC3",
      "componentType": 5126,
      "count": 2775,
      "max": [
        3468.360107421875,
        3643.8701171875,
        629.677978515625
      ],
      "min": [
        1672.510009765625,
        1839,
        66
      ],
      "bufferView": 54,
      "byteOffset": 12
    },
    {
      "type": "VEC2",
      "componentType": 5126,
      "count": 2775,
      "bufferView": 54,
      "byteOffset": 24
    },
    {
      "type": "VEC3",
      "componentType": 5126,
      "count": 2974,
      "bufferView": 55,
      "byteOffset": 0
    },
    {
      "type": "VEC3",
      "componentType": 5126,
      "count": 2974,
      "max": [
        3901.25,
        3877.510009765625,
        348
      ],
      "min": [
        1399.5,
        1865,
        66
      ],
      "bufferView": 55,
      "byteOffset": 12
    },
    {
      "type": "VEC2",
      "componentType": 5126,
      "count": 2974,
      "bufferView": 55,
      "byteOffset": 24
    },
    {
      "type": "VEC3",
      "componentType": 5126,
      "count": 56,
      "bufferView": 56,
      "byteOffset": 0
    },
    {
      "type": "VEC3",
      "componentType": 5126,
      "count": 56,
      "max": [
        3365.989990234375,
        3598.219970703125,
        66
      ],
      "min": [
        2776.56005859375,
        3112.429931640625,
        65.89679718017578
      ],
      "bufferView": 56,
      "byteOffset": 12
    },
    {
      "type": "VEC2",
      "componentType": 5126,
      "count": 56,
      "bufferView": 56,
      "byteOffset": 24
    },
    {
      "type": "VEC3",
      "componentType": 5126,
      "count": 1818,
      "bufferView": 57,
      "byteOffset": 0
    },
    {
      "type": "VEC3",
      "componentType": 5126,
      "count": 1818,
      "max": [
        2577.989990234375,
        3459,
        463
      ],
      "min": [
        2274.2099609375,
        2938.8798828125,
        174
      ],
      "bufferView": 57,
      "byteOffset": 12
    },
    {
      "type": "VEC2",
      "componentType": 5126,
      "count": 1818,
      "bufferView": 57,
      "byteOffset": 24
    },
    {
      "type": "VEC3",
      "componentType": 5126,
      "count": 4323,
      "bufferView": 58,
      "byteOffset": 0
    },
    {
      "type": "VEC3",
      "componentType": 5126,
      "count": 4323,
      "max": [
        3469.360107421875,
        3632,
        582
      ],
      "min": [
        2445.5,
        2610.43994140625,
        66
      ],
      "bufferView": 58,
      "byteOffset": 12
    },
    {
      "type": "VEC2",
      "componentType": 5126,
      "count": 4323,
      "bufferView": 58,
      "byteOffset": 24
    },
    {
      "type": "VEC3",
      "componentType": 5126,
      "count": 4160,
      "bufferView": 59,
      "byteOffset": 0
    },
    {
      "type": "VEC3",
      "componentType": 5126,
      "count": 4160,
      "max": [
        3469.360107421875,
        3631.97998046875,
        582
      ],
      "min": [
        2538.239990234375,
        2644.530029296875,
        85.5
      ],
      "bufferView": 59,
      "byteOffset": 12
    },
    {
      "type": "VEC2",
      "componentType": 5126,
      "count": 4160,
      "bufferView": 59,
      "byteOffset": 24
    },
    {
      "type": "VEC3",
      "componentType": 5126,
      "count": 4506,
      "bufferView": 60,
      "byteOffset": 0
    },
    {
      "type": "VEC3",
      "componentType": 5126,
      "count": 4506,
      "max": [
        3469.39990234375,
        3632,
        582
      ],
      "min": [
        1678.25,
        1839,
        66
      ],
      "bufferView": 60,
      "byteOffset": 12
    },
    {
      "type": "VEC2",
      "componentType": 5126,
      "count": 4506,
      "bufferView": 60,
      "byteOffset": 24
    },
    {
      "type": "VEC3",
      "componentType": 5126,
      "count": 3902,
      "bufferView": 61,
      "byteOffset": 0
    },
    {
      "type": "VEC3",
      "componentType": 5126,
      "count": 3902,
      "max": [
        3210.679931640625,
        3723.60009765625,
        209.9929962158203
      ],
      "min": [
        2905.06005859375,
        3406.989990234375,
        187.82000732421875
      ],
      "bufferView": 61,
      "byteOffset": 12
    },
    {
      "type": "VEC2",
      "componentType": 5126,
      "count": 3902,
      "bufferView": 61,
      "byteOffset": 24
    },
    {
      "type": "VEC3",
      "componentType": 5126,
      "count": 3264,
      "bufferView": 62,
      "byteOffset": 0
    },
    {
      "type": "VEC3",
      "componentType": 5126,
      "count": 3264,
      "max": [
        3288.27001953125,
        3779.2099609375,
        210
      ],
      "min": [
        2812.989990234375,
        3345.510009765625,
        187.82699584960938
      ],
      "bufferView": 62,
      "byteOffset": 12
    },
    {
      "type": "VEC2",
      "componentType": 5126,
      "count": 3264,
      "bufferView": 62,
      "byteOffset": 24
    },
    {
      "type": "VEC3",
      "componentType": 5126,
      "count": 12719,
      "bufferView": 63,
      "byteOffset": 0
    },
    {
      "type": "VEC3",
      "componentType": 5126,
      "count": 12719,
      "max": [
        3281.1298828125,
        3776.3701171875,
        210.5
      ],
      "min": [
        2790.989990234375,
        3400.739990234375,
        66
      ],
      "bufferView": 63,
      "byteOffset": 12
    },
    {
      "type": "VEC2",
      "componentType": 5126,
      "count": 12719,
      "bufferView": 63,
      "byteOffset": 24
    }
  ],
  "bufferViews": [
    {
      "buffer": 0,
      "byteOffset": 0,
      "byteLength": 896,
      "byteStride": 32,
      "target": 34962
    },
    {
      "buffer": 0,
      "byteOffset": 896,
      "byteLength": 2281692,
      "target": 34963
    },
    {
      "buffer": 0,
      "byteOffset": 2282588,
      "byteLength": 32992,
      "byteStride": 32,
      "target": 34962
    },
    {
      "buffer": 0,
      "byteOffset": 2315580,
      "byteLength": 358528,
      "byteStride": 32,
      "target": 34962
    },
    {
      "buffer": 0,
      "byteOffset": 2674108,
      "byteLength": 800,
      "byteStride": 32,
      "target": 34962
    },
    {
      "buffer": 0,
      "byteOffset": 2674908,
      "byteLength": 768,
      "byteStride": 32,
      "target": 34962
    },
    {
      "buffer": 0,
      "byteOffset": 2675676,
      "byteLength": 8992,
      "byteStride": 32,
      "target": 34962
    },
    {
      "buffer": 0,
      "byteOffset": 2684668,
      "byteLength": 3840,
      "byteStride": 32,
      "target": 34962
    },
    {
      "buffer": 0,
      "byteOffset": 2688508,
      "byteLength": 24160,
      "byteStride": 32,
      "target": 34962
    },
    {
      "buffer": 0,
      "byteOffset": 2712668,
      "byteLength": 182784,
      "byteStride": 32,
      "target": 34962
    },
    {
      "buffer": 0,
      "byteOffset": 2895452,
      "byteLength": 180160,
      "byteStride": 32,
      "target": 34962
    },
    {
      "buffer": 0,
      "byteOffset": 3075612,
      "byteLength": 163936,
      "byteStride": 32,
      "target": 34962
    },
    {
      "buffer": 0,
      "byteOffset": 3239548,
      "byteLength": 162624,
      "byteStride": 32,
      "target": 34962
    },
    {
      "buffer": 0,
      "byteOffset": 3402172,
      "byteLength": 162624,
      "byteStride": 32,
      "target": 34962
    },
    {
      "buffer": 0,
      "byteOffset": 3564796,
      "byteLength": 162624,
      "byteStride": 32,
      "target": 34962
    },
    {
      "buffer": 0,
      "byteOffset": 3727420,
      "byteLength": 162624,
      "byteStride": 32,
      "target": 34962
    },
    {
      "buffer": 0,
      "byteOffset": 3890044,
      "byteLength": 162624,
      "byteStride": 32,
      "target": 34962
    },
    {
      "buffer": 0,
      "byteOffset": 4052668,
      "byteLength": 162624,
      "byteStride": 32,
      "target": 34962
    },
    {
      "buffer": 0,
      "byteOffset": 4215292,
      "byteLength": 162624,
      "byteStride": 32,
      "target": 34962
    },
    {
      "buffer": 0,
      "byteOffset": 4377916,
      "byteLength": 162624,
      "byteStride": 32,
      "target": 34962
    },
    {
      "buffer": 0,
      "byteOffset": 4540540,
      "byteLength": 156384,
      "byteStride": 32,
      "target": 34962
    },
    {
      "buffer": 0,
      "byteOffset": 4696924,
      "byteLength": 160768,
      "byteStride": 32,
      "target": 34962
    },
    {
      "buffer": 0,
      "byteOffset": 4857692,
      "byteLength": 160768,
      "byteStride": 32,
      "target": 34962
    },
    {
      "buffer": 0,
      "byteOffset": 5018460,
      "byteLength": 160768,
      "byteStride": 32,
      "target": 34962
    },
    {
      "buffer": 0,
      "byteOffset": 5179228,
      "byteLength": 160768,
      "byteStride": 32,
      "target": 34962
    },
    {
      "buffer": 0,
      "byteOffset": 5339996,
      "byteLength": 160768,
      "byteStride": 32,
      "target": 34962
    },
    {
      "buffer": 0,
      "byteOffset": 5500764,
      "byteLength": 160768,
      "byteStride": 32,
      "target": 34962
    },
    {
      "buffer": 0,
      "byteOffset": 5661532,
      "byteLength": 160768,
      "byteStride": 32,
      "target": 34962
    },
    {
      "buffer": 0,
      "byteOffset": 5822300,
      "byteLength": 160768,
      "byteStride": 32,
      "target": 34962
    },
    {
      "buffer": 0,
      "byteOffset": 5983068,
      "byteLength": 160768,
      "byteStride": 32,
      "target": 34962
    },
    {
      "buffer": 0,
      "byteOffset": 6143836,
      "byteLength": 160768,
      "byteStride": 32,
      "target": 34962
    },
    {
      "buffer": 0,
      "byteOffset": 6304604,
      "byteLength": 160768,
      "byteStride": 32,
      "target": 34962
    },
    {
      "buffer": 0,
      "byteOffset": 6465372,
      "byteLength": 160768,
      "byteStride": 32,
      "target": 34962
    },
    {
      "buffer": 0,
      "byteOffset": 6626140,
      "byteLength": 160768,
      "byteStride": 32,
      "target": 34962
    },
    {
      "buffer": 0,
      "byteOffset": 6786908,
      "byteLength": 160768,
      "byteStride": 32,
      "target": 34962
    },
    {
      "buffer": 0,
      "byteOffset": 6947676,
      "byteLength": 160768,
      "byteStride": 32,
      "target": 34962
    },
    {
      "buffer": 0,
      "byteOffset": 7108444,
      "byteLength": 160768,
      "byteStride": 32,
      "target": 34962
    },
    {
      "buffer": 0,
      "byteOffset": 7269212,
      "byteLength": 160768,
      "byteStride": 32,
      "target": 34962
    },
    {
      "buffer": 0,
      "byteOffset": 7429980,
      "byteLength": 160768,
      "byteStride": 32,
      "target": 34962
    },
    {
      "buffer": 0,
      "byteOffset": 7590748,
      "byteLength": 160768,
      "byteStride": 32,
      "target": 34962
    },
    {
      "buffer": 0,
      "byteOffset": 7751516,
      "byteLength": 123200,
      "byteStride": 32,
      "target": 34962
    },
    {
      "buffer": 0,
      "byteOffset": 7874716,
      "byteLength": 140064,
      "byteStride": 32,
      "target": 34962
    },
    {
      "buffer": 0,
      "byteOffset": 8014780,
      "byteLength": 140064,
      "byteStride": 32,
      "target": 34962
    },
    {
      "buffer": 0,
      "byteOffset": 8154844,
      "byteLength": 140064,
      "byteStride": 32,
      "target": 34962
    },
    {
      "buffer": 0,
      "byteOffset": 8294908,
      "byteLength": 141984,
      "byteStride": 32,
      "target": 34962
    },
    {
      "buffer": 0,
      "byteOffset": 8436892,
      "byteLength": 141984,
      "byteStride": 32,
      "target": 34962
    },
    {
      "buffer": 0,
      "byteOffset": 8578876,
      "byteLength": 141984,
      "byteStride": 32,
      "target": 34962
    },
    {
      "buffer": 0,
      "byteOffset": 8720860,
      "byteLength": 142272,
      "byteStride": 32,
      "target": 34962
    },
    {
      "buffer": 0,
      "byteOffset": 8863132,
      "byteLength": 142272,
      "byteStride": 32,
      "target": 34962
    },
    {
      "buffer": 0,
      "byteOffset": 9005404,
      "byteLength": 142272,
      "byteStride": 32,
      "target": 34962
    },
    {
      "buffer": 0,
      "byteOffset": 9147676,
      "byteLength": 99136,
      "byteStride": 32,
      "target": 34962
    },
    {
      "buffer": 0,
      "byteOffset": 9246812,
      "byteLength": 1094528,
      "byteStride": 32,
      "target": 34962
    },
    {
      "buffer": 0,
      "byteOffset": 10341340,
      "byteLength": 87232,
      "byteStride": 32,
      "target": 34962
    },
    {
      "buffer": 0,
      "byteOffset": 10428572,
      "byteLength": 1152,
      "byteStride": 32,
      "target": 34962
    },
    {
      "buffer": 0,
      "byteOffset": 10429724,
      "byteLength": 88800,
      "byteStride": 32,
      "target": 34962
    },
    {
      "buffer": 0,
      "byteOffset": 10518524,
      "byteLength": 95168,
      "byteStride": 32,
      "target": 34962
    },
    {
      "buffer": 0,
      "byteOffset": 10613692,
      "byteLength": 1792,
      "byteStride": 32,
      "target": 34962
    },
    {
      "buffer": 0,
      "byteOffset": 10615484,
      "byteLength": 58176,
      "byteStride": 32,
      "target": 34962
    },
    {
      "buffer": 0,
      "byteOffset": 10673660,
      "byteLength": 138336,
      "byteStride": 32,
      "target": 34962
    },
    {
      "buffer": 0,
      "byteOffset": 10811996,
      "byteLength": 133120,
      "byteStride": 32,
      "target": 34962
    },
    {
      "buffer": 0,
      "byteOffset": 10945116,
      "byteLength": 144192,
      "byteStride": 32,
      "target": 34962
    },
    {
      "buffer": 0,
      "byteOffset": 11089308,
      "byteLength": 124864,
      "byteStride": 32,
      "target": 34962
    },
    {
      "buffer": 0,
      "byteOffset": 11214172,
      "byteLength": 104448,
      "byteStride": 32,
      "target": 34962
    },
    {
      "buffer": 0,
      "byteOffset": 11318620,
      "byteLength": 407008,
      "byteStride": 32,
      "target": 34962
    }
  ],
  "buffers": [
    {
      "uri": "buffer.bin",
      "byteLength": 11725628
    }
  ],
  "materials": [
    {
      "name": "BarcoStainedGlass",
      "alphaMode": "BLEND",
      "doubleSided": true,
      "pbrMetallicRoughness": {
        "baseColorFactor": [
          0.8313729763031006,
          0.800000011920929,
          0.7803919911384583,
          0.8
        ],
        "roughnessFactor": 0.2,
        "metallicFactor": 0
      }
    },
    {
      "name": "Metal_Aluminum_Anodized",
      "doubleSided": true,
      "pbrMetallicRoughness": {
        "baseColorFactor": [
          0.792156994342804,
          0.8196079730987549,
          0.8588240146636963,
          1
        ],
        "roughnessFactor": 0.2,
        "metallicFactor": 0
      }
    },
    {
      "name": "Metal_Aluminum_Anodized1",
      "doubleSided": true,
      "pbrMetallicRoughness": {
        "baseColorFactor": [
          0.792156994342804,
          0.8196079730987549,
          0.8588240146636963,
          1
        ],
        "roughnessFactor": 0.2,
        "metallicFactor": 0
      }
    },
    {
      "name": "Stone_Pavers_Walk",
      "doubleSided": true,
      "pbrMetallicRoughness": {
        "baseColorFactor": [
          0.6352940201759338,
          0.6156859993934631,
          0.4392159879207611,
          1
        ],
        "roughnessFactor": 0.2,
        "metallicFactor": 0
      }
    },
    {
      "name": "material_10",
      "doubleSided": true,
      "pbrMetallicRoughness": {
        "baseColorFactor": [
          0.21176500618457794,
          0.21176500618457794,
          0.21176500618457794,
          1
        ],
        "roughnessFactor": 0.2,
        "metallicFactor": 0
      }
    },
    {
      "name": "Metal_Aluminum_Anodized_2",
      "doubleSided": true,
      "pbrMetallicRoughness": {
        "baseColorFactor": [
          0.792156994342804,
          0.8196079730987549,
          0.8588240146636963,
          1
        ],
        "roughnessFactor": 0.2,
        "metallicFactor": 0
      }
    },
    {
      "name": "Metal_Aluminum_Anodized_3",
      "doubleSided": true,
      "pbrMetallicRoughness": {
        "baseColorFactor": [
          0.792156994342804,
          0.8196079730987549,
          0.8588240146636963,
          1
        ],
        "roughnessFactor": 0.2,
        "metallicFactor": 0
      }
    },
    {
      "name": "Color_008",
      "doubleSided": true,
      "pbrMetallicRoughness": {
        "baseColorFactor": [
          0.11764699965715408,
          0.11764699965715408,
          0.11764699965715408,
          1
        ],
        "roughnessFactor": 0.2,
        "metallicFactor": 0
      }
    },
    {
      "name": "FrontColor",
      "doubleSided": true,
      "pbrMetallicRoughness": {
        "roughnessFactor": 0.2,
        "metallicFactor": 0
      }
    },
    {
      "name": "M_0136_Charcoal",
      "doubleSided": true,
      "pbrMetallicRoughness": {
        "baseColorFactor": [
          0.137254998087883,
          0.137254998087883,
          0.137254998087883,
          1
        ],
        "roughnessFactor": 0.2,
        "metallicFactor": 0
      }
    },
    {
      "name": "material",
      "doubleSided": true,
      "pbrMetallicRoughness": {
        "baseColorFactor": [
          0.3803919851779938,
          0.5764709711074829,
          0.8039219975471497,
          1
        ],
        "roughnessFactor": 0.2,
        "metallicFactor": 0
      }
    },
    {
      "name": "Translucent_Glass_Blue",
      "alphaMode": "BLEND",
      "doubleSided": true,
      "pbrMetallicRoughness": {
        "baseColorFactor": [
          0.3921569883823395,
          0.5843139886856079,
          0.9294120073318481,
          0.5
        ],
        "roughnessFactor": 0.2,
        "metallicFactor": 0
      }
    },
    {
      "name": "Wood_Cherry_Original",
      "doubleSided": true,
      "pbrMetallicRoughness": {
        "baseColorFactor": [
          0.5960779786109924,
          0.33725500106811523,
          0.1647060066461563,
          1
        ],
        "roughnessFactor": 0.2,
        "metallicFactor": 0
      }
    },
    {
      "name": "material_11",
      "doubleSided": true,
      "pbrMetallicRoughness": {
        "baseColorFactor": [
          0.7098039984703064,
          0.7372549772262573,
          0.8509799838066101,
          1
        ],
        "roughnessFactor": 0.2,
        "metallicFactor": 0
      }
    },
    {
      "name": "Metal_Aluminum_Anodized_1",
      "doubleSided": true,
      "pbrMetallicRoughness": {
        "baseColorFactor": [
          0.792156994342804,
          0.8196079730987549,
          0.8588240146636963,
          1
        ],
        "roughnessFactor": 0.2,
        "metallicFactor": 0
      }
    },
    {
      "name": "Metal_Aluminum_Anodized_4",
      "doubleSided": true,
      "pbrMetallicRoughness": {
        "baseColorFactor": [
          0.792156994342804,
          0.8196079730987549,
          0.8588240146636963,
          1
        ],
        "roughnessFactor": 0.2,
        "metallicFactor": 0
      }
    },
    {
      "name": "Metal_Rough_1",
      "doubleSided": true,
      "pbrMetallicRoughness": {
        "baseColorFactor": [
          0.6000000238418579,
          0.6156859993934631,
          0.6274510025978088,
          1
        ],
        "roughnessFactor": 0.2,
        "metallicFactor": 0
      }
    }
  ],
  "meshes": [
    {
      "primitives": [
        {
          "attributes": {
            "NORMAL": 0,
            "POSITION": 1,
            "TEXCOORD_0": 2
          },
          "mode": 4,
          "material": 0,
          "indices": 3
        }
      ]
    },
    {
      "primitives": [
        {
          "attributes": {
            "NORMAL": 66,
            "POSITION": 67,
            "TEXCOORD_0": 68
          },
          "mode": 4,
          "material": 1,
          "indices": 4
        }
      ]
    },
    {
      "primitives": [
        {
          "attributes": {
            "NORMAL": 69,
            "POSITION": 70,
            "TEXCOORD_0": 71
          },
          "mode": 4,
          "material": 2,
          "indices": 5
        }
      ]
    },
    {
      "primitives": [
        {
          "attributes": {
            "NORMAL": 72,
            "POSITION": 73,
            "TEXCOORD_0": 74
          },
          "mode": 4,
          "material": 3,
          "indices": 6
        }
      ]
    },
    {
      "primitives": [
        {
          "attributes": {
            "NORMAL": 75,
            "POSITION": 76,
            "TEXCOORD_0": 77
          },
          "mode": 4,
          "material": 4,
          "indices": 7
        }
      ]
    },
    {
      "primitives": [
        {
          "attributes": {
            "NORMAL": 78,
            "POSITION": 79,
            "TEXCOORD_0": 80
          },
          "mode": 4,
          "material": 5,
          "indices": 8
        }
      ]
    },
    {
      "primitives": [
        {
          "attributes": {
            "NORMAL": 81,
            "POSITION": 82,
            "TEXCOORD_0": 83
          },
          "mode": 4,
          "material": 6,
          "indices": 9
        }
      ]
    },
    {
      "primitives": [
        {
          "attributes": {
            "NORMAL": 84,
            "POSITION": 85,
            "TEXCOORD_0": 86
          },
          "mode": 4,
          "material": 7,
          "indices": 10
        }
      ]
    },
    {
      "primitives": [
        {
          "attributes": {
            "NORMAL": 87,
            "POSITION": 88,
            "TEXCOORD_0": 89
          },
          "mode": 4,
          "material": 8,
          "indices": 11
        }
      ]
    },
    {
      "primitives": [
        {
          "attributes": {
            "NORMAL": 90,
            "POSITION": 91,
            "TEXCOORD_0": 92
          },
          "mode": 4,
          "material": 8,
          "indices": 12
        }
      ]
    },
    {
      "primitives": [
        {
          "attributes": {
            "NORMAL": 93,
            "POSITION": 94,
            "TEXCOORD_0": 95
          },
          "mode": 4,
          "material": 8,
          "indices": 13
        }
      ]
    },
    {
      "primitives": [
        {
          "attributes": {
            "NORMAL": 96,
            "POSITION": 97,
            "TEXCOORD_0": 98
          },
          "mode": 4,
          "material": 8,
          "indices": 14
        }
      ]
    },
    {
      "primitives": [
        {
          "attributes": {
            "NORMAL": 99,
            "POSITION": 100,
            "TEXCOORD_0": 101
          },
          "mode": 4,
          "material": 8,
          "indices": 15
        }
      ]
    },
    {
      "primitives": [
        {
          "attributes": {
            "NORMAL": 102,
            "POSITION": 103,
            "TEXCOORD_0": 104
          },
          "mode": 4,
          "material": 8,
          "indices": 16
        }
      ]
    },
    {
      "primitives": [
        {
          "attributes": {
            "NORMAL": 105,
            "POSITION": 106,
            "TEXCOORD_0": 107
          },
          "mode": 4,
          "material": 8,
          "indices": 17
        }
      ]
    },
    {
      "primitives": [
        {
          "attributes": {
            "NORMAL": 108,
            "POSITION": 109,
            "TEXCOORD_0": 110
          },
          "mode": 4,
          "material": 8,
          "indices": 18
        }
      ]
    },
    {
      "primitives": [
        {
          "attributes": {
            "NORMAL": 111,
            "POSITION": 112,
            "TEXCOORD_0": 113
          },
          "mode": 4,
          "material": 8,
          "indices": 19
        }
      ]
    },
    {
      "primitives": [
        {
          "attributes": {
            "NORMAL": 114,
            "POSITION": 115,
            "TEXCOORD_0": 116
          },
          "mode": 4,
          "material": 8,
          "indices": 20
        }
      ]
    },
    {
      "primitives": [
        {
          "attributes": {
            "NORMAL": 117,
            "POSITION": 118,
            "TEXCOORD_0": 119
          },
          "mode": 4,
          "material": 8,
          "indices": 21
        }
      ]
    },
    {
      "primitives": [
        {
          "attributes": {
            "NORMAL": 120,
            "POSITION": 121,
            "TEXCOORD_0": 122
          },
          "mode": 4,
          "material": 8,
          "indices": 22
        }
      ]
    },
    {
      "primitives": [
        {
          "attributes": {
            "NORMAL": 123,
            "POSITION": 124,
            "TEXCOORD_0": 125
          },
          "mode": 4,
          "material": 8,
          "indices": 23
        }
      ]
    },
    {
      "primitives": [
        {
          "attributes": {
            "NORMAL": 126,
            "POSITION": 127,
            "TEXCOORD_0": 128
          },
          "mode": 4,
          "material": 8,
          "indices": 24
        }
      ]
    },
    {
      "primitives": [
        {
          "attributes": {
            "NORMAL": 129,
            "POSITION": 130,
            "TEXCOORD_0": 131
          },
          "mode": 4,
          "material": 8,
          "indices": 25
        }
      ]
    },
    {
      "primitives": [
        {
          "attributes": {
            "NORMAL": 132,
            "POSITION": 133,
            "TEXCOORD_0": 134
          },
          "mode": 4,
          "material": 8,
          "indices": 26
        }
      ]
    },
    {
      "primitives": [
        {
          "attributes": {
            "NORMAL": 135,
            "POSITION": 136,
            "TEXCOORD_0": 137
          },
          "mode": 4,
          "material": 8,
          "indices": 27
        }
      ]
    },
    {
      "primitives": [
        {
          "attributes": {
            "NORMAL": 138,
            "POSITION": 139,
            "TEXCOORD_0": 140
          },
          "mode": 4,
          "material": 8,
          "indices": 28
        }
      ]
    },
    {
      "primitives": [
        {
          "attributes": {
            "NORMAL": 141,
            "POSITION": 142,
            "TEXCOORD_0": 143
          },
          "mode": 4,
          "material": 8,
          "indices": 29
        }
      ]
    },
    {
      "primitives": [
        {
          "attributes": {
            "NORMAL": 144,
            "POSITION": 145,
            "TEXCOORD_0": 146
          },
          "mode": 4,
          "material": 8,
          "indices": 30
        }
      ]
    },
    {
      "primitives": [
        {
          "attributes": {
            "NORMAL": 147,
            "POSITION": 148,
            "TEXCOORD_0": 149
          },
          "mode": 4,
          "material": 8,
          "indices": 31
        }
      ]
    },
    {
      "primitives": [
        {
          "attributes": {
            "NORMAL": 150,
            "POSITION": 151,
            "TEXCOORD_0": 152
          },
          "mode": 4,
          "material": 8,
          "indices": 32
        }
      ]
    },
    {
      "primitives": [
        {
          "attributes": {
            "NORMAL": 153,
            "POSITION": 154,
            "TEXCOORD_0": 155
          },
          "mode": 4,
          "material": 8,
          "indices": 33
        }
      ]
    },
    {
      "primitives": [
        {
          "attributes": {
            "NORMAL": 156,
            "POSITION": 157,
            "TEXCOORD_0": 158
          },
          "mode": 4,
          "material": 8,
          "indices": 34
        }
      ]
    },
    {
      "primitives": [
        {
          "attributes": {
            "NORMAL": 159,
            "POSITION": 160,
            "TEXCOORD_0": 161
          },
          "mode": 4,
          "material": 8,
          "indices": 35
        }
      ]
    },
    {
      "primitives": [
        {
          "attributes": {
            "NORMAL": 162,
            "POSITION": 163,
            "TEXCOORD_0": 164
          },
          "mode": 4,
          "material": 8,
          "indices": 36
        }
      ]
    },
    {
      "primitives": [
        {
          "attributes": {
            "NORMAL": 165,
            "POSITION": 166,
            "TEXCOORD_0": 167
          },
          "mode": 4,
          "material": 8,
          "indices": 37
        }
      ]
    },
    {
      "primitives": [
        {
          "attributes": {
            "NORMAL": 168,
            "POSITION": 169,
            "TEXCOORD_0": 170
          },
          "mode": 4,
          "material": 8,
          "indices": 38
        }
      ]
    },
    {
      "primitives": [
        {
          "attributes": {
            "NORMAL": 171,
            "POSITION": 172,
            "TEXCOORD_0": 173
          },
          "mode": 4,
          "material": 8,
          "indices": 39
        }
      ]
    },
    {
      "primitives": [
        {
          "attributes": {
            "NORMAL": 174,
            "POSITION": 175,
            "TEXCOORD_0": 176
          },
          "mode": 4,
          "material": 8,
          "indices": 40
        }
      ]
    },
    {
      "primitives": [
        {
          "attributes": {
            "NORMAL": 177,
            "POSITION": 178,
            "TEXCOORD_0": 179
          },
          "mode": 4,
          "material": 8,
          "indices": 41
        }
      ]
    },
    {
      "primitives": [
        {
          "attributes": {
            "NORMAL": 180,
            "POSITION": 181,
            "TEXCOORD_0": 182
          },
          "mode": 4,
          "material": 8,
          "indices": 42
        }
      ]
    },
    {
      "primitives": [
        {
          "attributes": {
            "NORMAL": 183,
            "POSITION": 184,
            "TEXCOORD_0": 185
          },
          "mode": 4,
          "material": 8,
          "indices": 43
        }
      ]
    },
    {
      "primitives": [
        {
          "attributes": {
            "NORMAL": 186,
            "POSITION": 187,
            "TEXCOORD_0": 188
          },
          "mode": 4,
          "material": 8,
          "indices": 44
        }
      ]
    },
    {
      "primitives": [
        {
          "attributes": {
            "NORMAL": 189,
            "POSITION": 190,
            "TEXCOORD_0": 191
          },
          "mode": 4,
          "material": 8,
          "indices": 45
        }
      ]
    },
    {
      "primitives": [
        {
          "attributes": {
            "NORMAL": 192,
            "POSITION": 193,
            "TEXCOORD_0": 194
          },
          "mode": 4,
          "material": 8,
          "indices": 46
        }
      ]
    },
    {
      "primitives": [
        {
          "attributes": {
            "NORMAL": 195,
            "POSITION": 196,
            "TEXCOORD_0": 197
          },
          "mode": 4,
          "material": 8,
          "indices": 47
        }
      ]
    },
    {
      "primitives": [
        {
          "attributes": {
            "NORMAL": 198,
            "POSITION": 199,
            "TEXCOORD_0": 200
          },
          "mode": 4,
          "material": 8,
          "indices": 48
        }
      ]
    },
    {
      "primitives": [
        {
          "attributes": {
            "NORMAL": 201,
            "POSITION": 202,
            "TEXCOORD_0": 203
          },
          "mode": 4,
          "material": 8,
          "indices": 49
        }
      ]
    },
    {
      "primitives": [
        {
          "attributes": {
            "NORMAL": 204,
            "POSITION": 205,
            "TEXCOORD_0": 206
          },
          "mode": 4,
          "material": 8,
          "indices": 50
        }
      ]
    },
    {
      "primitives": [
        {
          "attributes": {
            "NORMAL": 207,
            "POSITION": 208,
            "TEXCOORD_0": 209
          },
          "mode": 4,
          "material": 8,
          "indices": 51
        }
      ]
    },
    {
      "primitives": [
        {
          "attributes": {
            "NORMAL": 210,
            "POSITION": 211,
            "TEXCOORD_0": 212
          },
          "mode": 4,
          "material": 8,
          "indices": 52
        }
      ]
    },
    {
      "primitives": [
        {
          "attributes": {
            "NORMAL": 213,
            "POSITION": 214,
            "TEXCOORD_0": 215
          },
          "mode": 4,
          "material": 8,
          "indices": 53
        }
      ]
    },
    {
      "primitives": [
        {
          "attributes": {
            "NORMAL": 216,
            "POSITION": 217,
            "TEXCOORD_0": 218
          },
          "mode": 4,
          "material": 9,
          "indices": 54
        }
      ]
    },
    {
      "primitives": [
        {
          "attributes": {
            "NORMAL": 219,
            "POSITION": 220,
            "TEXCOORD_0": 221
          },
          "mode": 4,
          "material": 10,
          "indices": 55
        }
      ]
    },
    {
      "primitives": [
        {
          "attributes": {
            "NORMAL": 222,
            "POSITION": 223,
            "TEXCOORD_0": 224
          },
          "mode": 4,
          "material": 11,
          "indices": 56
        }
      ]
    },
    {
      "primitives": [
        {
          "attributes": {
            "NORMAL": 225,
            "POSITION": 226,
            "TEXCOORD_0": 227
          },
          "mode": 4,
          "material": 12,
          "indices": 57
        }
      ]
    },
    {
      "primitives": [
        {
          "attributes": {
            "NORMAL": 228,
            "POSITION": 229,
            "TEXCOORD_0": 230
          },
          "mode": 4,
          "material": 13,
          "indices": 58
        }
      ]
    },
    {
      "primitives": [
        {
          "attributes": {
            "NORMAL": 231,
            "POSITION": 232,
            "TEXCOORD_0": 233
          },
          "mode": 4,
          "material": 14,
          "indices": 59
        }
      ]
    },
    {
      "primitives": [
        {
          "attributes": {
            "NORMAL": 234,
            "POSITION": 235,
            "TEXCOORD_0": 236
          },
          "mode": 4,
          "material": 15,
          "indices": 60
        }
      ]
    },
    {
      "primitives": [
        {
          "attributes": {
            "NORMAL": 237,
            "POSITION": 238,
            "TEXCOORD_0": 239
          },
          "mode": 4,
          "material": 15,
          "indices": 61
        }
      ]
    },
    {
      "primitives": [
        {
          "attributes": {
            "NORMAL": 240,
            "POSITION": 241,
            "TEXCOORD_0": 242
          },
          "mode": 4,
          "material": 15,
          "indices": 62
        }
      ]
    },
    {
      "primitives": [
        {
          "attributes": {
            "NORMAL": 243,
            "POSITION": 244,
            "TEXCOORD_0": 245
          },
          "mode": 4,
          "material": 16,
          "indices": 63
        }
      ]
    },
    {
      "primitives": [
        {
          "attributes": {
            "NORMAL": 246,
            "POSITION": 247,
            "TEXCOORD_0": 248
          },
          "mode": 4,
          "material": 16,
          "indices": 64
        }
      ]
    },
    {
      "primitives": [
        {
          "attributes": {
            "NORMAL": 249,
            "POSITION": 250,
            "TEXCOORD_0": 251
          },
          "mode": 4,
          "material": 16,
          "indices": 65
        }
      ]
    }
  ],
  "nodes": [
    {
      "name": "Sketchfab_Scene",
      "children": [
        1
      ]
    },
    {
      "name": "Sketchfab_model",
      "extras": {
        "name": "Sketchfab_model"
      },
      "rotation": [
        -0.7071067811865475,
        0,
        0,
        0.7071067811865476
      ],
      "scale": [
        0.01339591946452856,
        0.01339591946452856,
        0.01339591946452856
      ],
      "children": [
        2
      ]
    },
    {
      "name": "The_Cable_Center_in_prog-6objcleanergles",
      "extras": {
        "name": "The Cable Center [in prog-6].obj.cleaner.gles"
      },
      "children": [
        3,
        4,
        5,
        6,
        7,
        8,
        9,
        10,
        11,
        12,
        13,
        14,
        15,
        16,
        17,
        18,
        19,
        20,
        21,
        22,
        23,
        24,
        25,
        26,
        27,
        28,
        29,
        30,
        31,
        32,
        33,
        34,
        35,
        36,
        37,
        38,
        39,
        40,
        41,
        42,
        43,
        44,
        45,
        46,
        47,
        48,
        49,
        50,
        51,
        52,
        53,
        54,
        55,
        56,
        57,
        58,
        59,
        60,
        61,
        62,
        63,
        64,
        65
      ]
    },
    {
      "name": "Object_2",
      "extras": {
        "name": "Object_2"
      },
      "mesh": 0
    },
    {
      "name": "Object_3",
      "extras": {
        "name": "Object_3"
      },
      "mesh": 1
    },
    {
      "name": "Object_4",
      "extras": {
        "name": "Object_4"
      },
      "mesh": 2
    },
    {
      "name": "Object_5",
      "extras": {
        "name": "Object_5"
      },
      "mesh": 3
    },
    {
      "name": "Object_6",
      "extras": {
        "name": "Object_6"
      },
      "mesh": 4
    },
    {
      "name": "Object_7",
      "extras": {
        "name": "Object_7"
      },
      "mesh": 5
    },
    {
      "name": "Object_8",
      "extras": {
        "name": "Object_8"
      },
      "mesh": 6
    },
    {
      "name": "Object_9",
      "extras": {
        "name": "Object_9"
      },
      "mesh": 7
    },
    {
      "name": "Object_10",
      "extras": {
        "name": "Object_10"
      },
      "mesh": 8
    },
    {
      "name": "Object_11",
      "extras": {
        "name": "Object_11"
      },
      "mesh": 9
    },
    {
      "name": "Object_12",
      "extras": {
        "name": "Object_12"
      },
      "mesh": 10
    },
    {
      "name": "Object_13",
      "extras": {
        "name": "Object_13"
      },
      "mesh": 11
    },
    {
      "name": "Object_14",
      "extras": {
        "name": "Object_14"
      },
      "mesh": 12
    },
    {
      "name": "Object_15",
      "extras": {
        "name": "Object_15"
      },
      "mesh": 13
    },
    {
      "name": "Object_16",
      "extras": {
        "name": "Object_16"
      },
      "mesh": 14
    },
    {
      "name": "Object_17",
      "extras": {
        "name": "Object_17"
      },
      "mesh": 15
    },
    {
      "name": "Object_18",
      "extras": {
        "name": "Object_18"
      },
      "mesh": 16
    },
    {
      "name": "Object_19",
      "extras": {
        "name": "Object_19"
      },
      "mesh": 17
    },
    {
      "name": "Object_20",
      "extras": {
        "name": "Object_20"
      },
      "mesh": 18
    },
    {
      "name": "Object_21",
      "extras": {
        "name": "Object_21"
      },
      "mesh": 19
    },
    {
      "name": "Object_22",
      "extras": {
        "name": "Object_22"
      },
      "mesh": 20
    },
    {
      "name": "Object_23",
      "extras": {
        "name": "Object_23"
      },
      "mesh": 21
    },
    {
      "name": "Object_24",
      "extras": {
        "name": "Object_24"
      },
      "mesh": 22
    },
    {
      "name": "Object_25",
      "extras": {
        "name": "Object_25"
      },
      "mesh": 23
    },
    {
      "name": "Object_26",
      "extras": {
        "name": "Object_26"
      },
      "mesh": 24
    },
    {
      "name": "Object_27",
      "extras": {
        "name": "Object_27"
      },
      "mesh": 25
    },
    {
      "name": "Object_28",
      "extras": {
        "name": "Object_28"
      },
      "mesh": 26
    },
    {
      "name": "Object_29",
      "extras": {
        "name": "Object_29"
      },
      "mesh": 27
    },
    {
      "name": "Object_30",
      "extras": {
        "name": "Object_30"
      },
      "mesh": 28
    },
    {
      "name": "Object_31",
      "extras": {
        "name": "Object_31"
      },
      "mesh": 29
    },
    {
      "name": "Object_32",
      "extras": {
        "name": "Object_32"
      },
      "mesh": 30
    },
    {
      "name": "Object_33",
      "extras": {
        "name": "Object_33"
      },
      "mesh": 31
    },
    {
      "name": "Object_34",
      "extras": {
        "name": "Object_34"
      },
      "mesh": 32
    },
    {
      "name": "Object_35",
      "extras": {
        "name": "Object_35"
      },
      "mesh": 33
    },
    {
      "name": "Object_36",
      "extras": {
        "name": "Object_36"
      },
      "mesh": 34
    },
    {
      "name": "Object_37",
      "extras": {
        "name": "Object_37"
      },
      "mesh": 35
    },
    {
      "name": "Object_38",
      "extras": {
        "name": "Object_38"
      },
      "mesh": 36
    },
    {
      "name": "Object_39",
      "extras": {
        "name": "Object_39"
      },
      "mesh": 37
    },
    {
      "name": "Object_40",
      "extras": {
        "name": "Object_40"
      },
      "mesh": 38
    },
    {
      "name": "Object_41",
      "extras": {
        "name": "Object_41"
      },
      "mesh": 39
    },
    {
      "name": "Object_42",
      "extras": {
        "name": "Object_42"
      },
      "mesh": 40
    },
    {
      "name": "Object_43",
      "extras": {
        "name": "Object_43"
      },
      "mesh": 41
    },
    {
      "name": "Object_44",
      "extras": {
        "name": "Object_44"
      },
      "mesh": 42
    },
    {
      "name": "Object_45",
      "extras": {
        "name": "Object_45"
      },
      "mesh": 43
    },
    {
      "name": "Object_46",
      "extras": {
        "name": "Object_46"
      },
      "mesh": 44
    },
    {
      "name": "Object_47",
      "extras": {
        "name": "Object_47"
      },
      "mesh": 45
    },
    {
      "name": "Object_48",
      "extras": {
        "name": "Object_48"
      },
      "mesh": 46
    },
    {
      "name": "Object_49",
      "extras": {
        "name": "Object_49"
      },
      "mesh": 47
    },
    {
      "name": "Object_50",
      "extras": {
        "name": "Object_50"
      },
      "mesh": 48
    },
    {
      "name": "Object_51",
      "extras": {
        "name": "Object_51"
      },
      "mesh": 49
    },
    {
      "name": "Object_52",
      "extras": {
        "name": "Object_52"
      },
      "mesh": 50
    },
    {
      "name": "Object_53",
      "extras": {
        "name": "Object_53"
      },
      "mesh": 51
    },
    {
      "name": "Object_54",
      "extras": {
        "name": "Object_54"
      },
      "mesh": 52
    },
    {
      "name": "Object_55",
      "extras": {
        "name": "Object_55"
      },
      "mesh": 53
    },
    {
      "name": "Object_56",
      "extras": {
        "name": "Object_56"
      },
      "mesh": 54
    },
    {
      "name": "Object_57",
      "extras": {
        "name": "Object_57"
      },
      "mesh": 55
    },
    {
      "name": "Object_58",
      "extras": {
        "name": "Object_58"
      },
      "mesh": 56
    },
    {
      "name": "Object_59",
      "extras": {
        "name": "Object_59"
      },
      "mesh": 57
    },
    {
      "name": "Object_60",
      "extras": {
        "name": "Object_60"
      },
      "mesh": 58
    },
    {
      "name": "Object_61",
      "extras": {
        "name": "Object_61"
      },
      "mesh": 59
    },
    {
      "name": "Object_62",
      "extras": {
        "name": "Object_62"
      },
      "mesh": 60
    },
    {
      "name": "Object_63",
      "extras": {
        "name": "Object_63"
      },
      "mesh": 61
    },
    {
      "name": "Object_64",
      "extras": {
        "name": "Object_64"
      },
      "mesh": 62
    }
  ],
  "scenes": [
    {
      "name": "AuxScene",
      "nodes": [
        0
      ]
    }
  ],
  "scene": 0
}