{
  "accessors": [
    {
      "bufferView": 2,
      "componentType": 5126,
      "count": 28,
      "max": [
        2425.75,
        2036.280029296875,
        163.6529998779297
      ],
      "min": [
        2425.75,
        1965.719970703125,
        93.09320068359375
      ],
      "type": "VEC3"
    },
    {
      "bufferView": 2,
      "byteOffset": 336,
      "componentType": 5126,
      "count": 28,
      "max": [
        1.0,
        -0.0,
        7.734689821913448e-31
      ],
      "min": [
        1.0,
        -0.0,
        7.734689821913448e-31
      ],
      "type": "VEC3"
    },
    {
      "bufferView": 1,
      "componentType": 5126,
      "count": 28,
      "max": [
        167.77099609375,
        21.886600494384766
      ],
      "min": [
        167.24200439453125,
        21.094100952148438
      ],
      "type": "VEC2"
    },
    {
      "bufferView": 0,
      "componentType": 5125,
      "count": 78,
      "type": "SCALAR"
    },
    {
      "bufferView": 2,
      "byteOffset": 672,
      "componentType": 5126,
      "count": 1031,
      "max": [
        3460.22998046875,
        3622.0,
        630.0
      ],
      "min": [
        2443.5,
        2608.89990234375,
        581.6389770507813
      ],
      "type": "VEC3"
    },
    {
      "bufferView": 2,
      "byteOffset": 13044,
      "componentType": 5126,
      "count": 1031,
      "max": [
        1.0,
        1.0,
        0.9664595127105713
      ],
      "min": [
        -1.0,
        -1.0,
        -1.0
      ],
      "type": "VEC3"
    },
    {
      "bufferView": 1,
      "byteOffset": 224,
      "componentType": 5126,
      "count": 1031,
      "max": [
        18.828399658203125,
        16.214500427246094
      ],
      "min": [
        -18.828399658203125,
        -17.710800170898438
      ],
      "type": "VEC2"
    },
    {
      "bufferView": 0,
      "byteOffset": 312,
      "componentType": 5125,
      "count": 1770,
      "type": "SCALAR"
    },
    {
      "bufferView": 2,
      "byteOffset": 25416,
      "componentType": 5126,
      "count": 11204,
      "max": [
        3449.6201171875,
        3560.929931640625,
        546.0
      ],
      "min": [
        2410.5,
        1839.0,
        66.0
      ],
      "type": "VEC3"
    },
    {
      "bufferView": 2,
      "byteOffset": 159864,
      "componentType": 5126,
      "count": 11204,
      "max": [
        1.0,
        1.0,
        1.0
      ],
      "min": [
        -1.0,
        -1.0,
        -1.0
      ],
      "type": "VEC3"
    },
    {
      "bufferView": 1,
      "byteOffset": 8472,
      "componentType": 5126,
      "count": 11204,
      "max": [
        84.80719757080078,
        84.35440063476563
      ],
      "min": [
        -84.80719757080078,
        -82.93270111083984
      ],
      "type": "VEC2"
    },
    {
      "bufferView": 0,
      "byteOffset": 7392,
      "componentType": 5125,
      "count": 18096,
      "type": "SCALAR"
    },
    {
      "bufferView": 2,
      "byteOffset": 294312,
      "componentType": 5126,
      "count": 25,
      "max": [
        3235.3798828125,
        2977.7900390625,
        166.19900512695313
      ],
      "min": [
        3047.669921875,
        2816.639892578125,
        162.03500366210938
      ],
      "type": "VEC3"
    },
    {
      "bufferView": 2,
      "byteOffset": 294612,
      "componentType": 5126,
      "count": 25,
      "max": [
        0.0023358697071671486,
        0.997867226600647,
        2.2909097036928616e-14
      ],
      "min": [
        -0.398576945066452,
        -0.005374879576265812,
        -1.0
      ],
      "type": "VEC3"
    },
    {
      "bufferView": 1,
      "byteOffset": 98104,
      "componentType": 5126,
      "count": 25,
      "max": [
        55.91579818725586,
        52.515098571777344
      ],
      "min": [
        -55.84239959716797,
        -19.48819923400879
      ],
      "type": "VEC2"
    },
    {
      "bufferView": 0,
      "byteOffset": 79776,
      "componentType": 5125,
      "count": 45,
      "type": "SCALAR"
    },
    {
      "bufferView": 2,
      "byteOffset": 294912,
      "componentType": 5126,
      "count": 24,
      "max": [
        2767.949951171875,
        2933.31005859375,
        460.5
      ],
      "min": [
        2613.72998046875,
        2779.22998046875,
        156.0
      ],
      "type": "VEC3"
    },
    {
      "bufferView": 2,
      "byteOffset": 295200,
      "componentType": 5126,
      "count": 24,
      "max": [
        0.7075551748275757,
        0.7075551748275757,
        1.0
      ],
      "min": [
        -0.7075551748275757,
        -0.7075551748275757,
        -1.0
      ],
      "type": "VEC3"
    },
    {
      "bufferView": 1,
      "byteOffset": 98304,
      "componentType": 5126,
      "count": 24,
      "max": [
        3938.969970703125,
        2933.31005859375
      ],
      "min": [
        -3938.969970703125,
        156.0
      ],
      "type": "VEC2"
    },
    {
      "bufferView": 0,
      "byteOffset": 79956,
      "componentType": 5125,
      "count": 36,
      "type": "SCALAR"
    },
    {
      "bufferView": 2,
      "byteOffset": 295488,
      "componentType": 5126,
      "count": 281,
      "max": [
        3085.06005859375,
        3414.409912109375,
        246.5
      ],
      "min": [
        2274.2099609375,
        2704.5,
        246.0
      ],
      "type": "VEC3"
    },
    {
      "bufferView": 2,
      "byteOffset": 298860,
      "componentType": 5126,
      "count": 281,
      "max": [
        0.9920617341995239,
        1.0,
        1.0
      ],
      "min": [
        -0.9970253705978394,
        -0.9999933838844299,
        -7.623013548521684e-13
      ],
      "type": "VEC3"
    },
    {
      "bufferView": 1,
      "byteOffset": 98496,
      "componentType": 5126,
      "count": 281,
      "max": [
        75.10690307617188,
        63.229801177978516
      ],
      "min": [
        -45.25,
        -6.838969765932817e-14
      ],
      "type": "VEC2"
    },
    {
      "bufferView": 0,
      "byteOffset": 80100,
      "componentType": 5125,
      "count": 909,
      "type": "SCALAR"
    },
    {
      "bufferView": 2,
      "byteOffset": 302232,
      "componentType": 5126,
      "count": 120,
      "max": [
        2505.179931640625,
        3342.679931640625,
        174.0
      ],
      "min": [
        2345.820068359375,
        3183.320068359375,
        146.5
      ],
      "type": "VEC3"
    },
    {
      "bufferView": 2,
      "byteOffset": 303672,
      "componentType": 5126,
      "count": 120,
      "max": [
        0.676827073097229,
        0.676827073097229,
        -0.7361417412757874
      ],
      "min": [
        -0.676827073097229,
        -0.676827073097229,
        -1.0
      ],
      "type": "VEC3"
    },
    {
      "bufferView": 1,
      "byteOffset": 100744,
      "componentType": 5126,
      "count": 120,
      "max": [
        75.4751968383789,
        61.347599029541016
      ],
      "min": [
        -75.4751968383789,
        -52.68519973754883
      ],
      "type": "VEC2"
    },
    {
      "bufferView": 0,
      "byteOffset": 83736,
      "componentType": 5125,
      "count": 210,
      "type": "SCALAR"
    },
    {
      "bufferView": 2,
      "byteOffset": 305112,
      "componentType": 5126,
      "count": 755,
      "max": [
        2417.18994140625,
        3926.75,
        581.5
      ],
      "min": [
        1761.81005859375,
        3386.1201171875,
        66.0
      ],
      "type": "VEC3"
    },
    {
      "bufferView": 2,
      "byteOffset": 314172,
      "componentType": 5126,
      "count": 755,
      "max": [
        1.0,
        1.0,
        1.0
      ],
      "min": [
        -1.0,
        -1.0,
        -5.2928899293752576e-15
      ],
      "type": "VEC3"
    },
    {
      "bufferView": 1,
      "byteOffset": 101704,
      "componentType": 5126,
      "count": 755,
      "max": [
        4431.31982421875,
        2081.75
      ],
      "min": [
        -4561.43994140625,
        66.0
      ],
      "type": "VEC2"
    },
    {
      "bufferView": 0,
      "byteOffset": 84576,
      "componentType": 5125,
      "count": 1443,
      "type": "SCALAR"
    },
    {
      "bufferView": 2,
      "byteOffset": 323232,
      "componentType": 5126,
      "count": 5712,
      "max": [
        4022.639892578125,
        3956.0,
        168.0
      ],
      "min": [
        1411.280029296875,
        2018.68994140625,
        66.0
      ],
      "type": "VEC3"
    },
    {
      "bufferView": 2,
      "byteOffset": 391776,
      "componentType": 5126,
      "count": 5712,
      "max": [
        1.0,
        1.0,
        1.0
      ],
      "min": [
        -1.0,
        -1.0,
        -1.0
      ],
      "type": "VEC3"
    },
    {
      "bufferView": 1,
      "byteOffset": 107744,
      "componentType": 5126,
      "count": 5712,
      "max": [
        39.37009811401367,
        89.09549713134766
      ],
      "min": [
        -39.37009811401367,
        -16.970600128173828
      ],
      "type": "VEC2"
    },
    {
      "bufferView": 0,
      "byteOffset": 90348,
      "componentType": 5125,
      "count": 9996,
      "type": "SCALAR"
    },
    {
      "bufferView": 2,
      "byteOffset": 460320,
      "componentType": 5126,
      "count": 5630,
      "max": [
        3983.5,
        3953.0,
        784.7020263671875
      ],
      "min": [
        1735.5,
        1723.949951171875,
        57.0
      ],
      "type": "VEC3"
    },
    {
      "bufferView": 2,
      "byteOffset": 527880,
      "componentType": 5126,
      "count": 5630,
      "max": [
        1.0,
        1.0,
        1.0
      ],
      "min": [
        -1.0,
        -1.0,
        -1.0
      ],
      "type": "VEC3"
    },
    {
      "bufferView": 1,
      "byteOffset": 153440,
      "componentType": 5126,
      "count": 5630,
      "max": [
        2052.0,
        2052.0
      ],
      "min": [
        -2052.0,
        -789.3170166015625
      ],
      "type": "VEC2"
    },
    {
      "bufferView": 0,
      "byteOffset": 130332,
      "componentType": 5125,
      "count": 9951,
      "type": "SCALAR"
    },
    {
      "bufferView": 2,
      "byteOffset": 595440,
      "componentType": 5126,
      "count": 5123,
      "max": [
        3268.010009765625,
        3459.0,
        582.051025390625
      ],
      "min": [
        2275.5,
        2349.81005859375,
        68.0
      ],
      "type": "VEC3"
    },
    {
      "bufferView": 2,
      "byteOffset": 656916,
      "componentType": 5126,
      "count": 5123,
      "max": [
        1.0,
        1.0,
        1.0
      ],
      "min": [
        -1.0,
        -1.0,
        -1.0
      ],
      "type": "VEC3"
    },
    {
      "bufferView": 1,
      "byteOffset": 198480,
      "componentType": 5126,
      "count": 5123,
      "max": [
        754.85498046875,
        751.7150268554688
      ],
      "min": [
        -794.4660034179688,
        -174.1280059814453
      ],
      "type": "VEC2"
    },
    {
      "bufferView": 0,
      "byteOffset": 170136,
      "componentType": 5125,
      "count": 9849,
      "type": "SCALAR"
    },
    {
      "bufferView": 2,
      "byteOffset": 718392,
      "componentType": 5126,
      "count": 5082,
      "max": [
        2917.5,
        2506.179931640625,
        136.1179962158203
      ],
      "min": [
        2633.64990234375,
        2349.81005859375,
        70.84249877929688
      ],
      "type": "VEC3"
    },
    {
      "bufferView": 2,
      "byteOffset": 779376,
      "componentType": 5126,
      "count": 5082,
      "max": [
        1.0,
        1.0,
        1.0
      ],
      "min": [
        -1.0,
        -1.0,
        -1.0
      ],
      "type": "VEC3"
    },
    {
      "bufferView": 1,
      "byteOffset": 239464,
      "componentType": 5126,
      "count": 5082,
      "max": [
        39.25199890136719,
        39.25199890136719
      ],
      "min": [
        -39.25199890136719,
        -3.866650104522705
      ],
      "type": "VEC2"
    },
    {
      "bufferView": 0,
      "byteOffset": 209532,
      "componentType": 5125,
      "count": 9834,
      "type": "SCALAR"
    },
    {
      "bufferView": 2,
      "byteOffset": 840360,
      "componentType": 5126,
      "count": 5082,
      "max": [
        2917.5,
        2506.179931640625,
        136.1179962158203
      ],
      "min": [
        2746.860107421875,
        2349.81005859375,
        70.84249877929688
      ],
      "type": "VEC3"
    },
    {
      "bufferView": 2,
      "byteOffset": 901344,
      "componentType": 5126,
      "count": 5082,
      "max": [
        1.0,
        1.0,
        1.0
      ],
      "min": [
        -1.0,
        -1.0,
        -1.0
      ],
      "type": "VEC3"
    },
    {
      "bufferView": 1,
      "byteOffset": 280120,
      "componentType": 5126,
      "count": 5082,
      "max": [
        39.25199890136719,
        39.25199890136719
      ],
      "min": [
        -39.25199890136719,
        -3.866650104522705
      ],
      "type": "VEC2"
    },
    {
      "bufferView": 0,
      "byteOffset": 248868,
      "componentType": 5125,
      "count": 9834,
      "type": "SCALAR"
    },
    {
      "bufferView": 2,
      "byteOffset": 962328,
      "componentType": 5126,
      "count": 5082,
      "max": [
        2917.5,
        2506.179931640625,
        136.1179962158203
      ],
      "min": [
        2679.8798828125,
        2349.81005859375,
        70.84249877929688
      ],
      "type": "VEC3"
    },
    {
      "bufferView": 2,
      "byteOffset": 1023312,
      "componentType": 5126,
      "count": 5082,
      "max": [
        1.0,
        1.0,
        1.0
      ],
      "min": [
        -1.0,
        -1.0,
        -1.0
      ],
      "type": "VEC3"
    },
    {
      "bufferView": 1,
      "byteOffset": 320776,
      "componentType": 5126,
      "count": 5082,
      "max": [
        39.25199890136719,
        39.25199890136719
      ],
      "min": [
        -39.25199890136719,
        -3.866650104522705
      ],
      "type": "VEC2"
    },
    {
      "bufferView": 0,
      "byteOffset": 288204,
      "componentType": 5125,
      "count": 9834,
      "type": "SCALAR"
    },
    {
      "bufferView": 2,
      "byteOffset": 1084296,
      "componentType": 5126,
      "count": 5082,
      "max": [
        2917.5,
        2506.179931640625,
        136.1179962158203
      ],
      "min": [
        2746.860107421875,
        2349.81005859375,
        70.84249877929688
      ],
      "type": "VEC3"
    },
    {
      "bufferView": 2,
      "byteOffset": 1145280,
      "componentType": 5126,
      "count": 5082,
      "max": [
        1.0,
        1.0,
        1.0
      ],
      "min": [
        -1.0,
        -1.0,
        -1.0
      ],
      "type": "VEC3"
    },
    {
      "bufferView": 1,
      "byteOffset": 361432,
      "componentType": 5126,
      "count": 5082,
      "max": [
        39.25199890136719,
        39.25199890136719
      ],
      "min": [
        -39.25199890136719,
        -3.866650104522705
      ],
      "type": "VEC2"
    },
    {
      "bufferView": 0,
      "byteOffset": 327540,
      "componentType": 5125,
      "count": 9834,
      "type": "SCALAR"
    },
    {
      "bufferView": 2,
      "byteOffset": 1206264,
      "componentType": 5126,
      "count": 5082,
      "max": [
        2917.5,
        2506.179931640625,
        136.1179962158203
      ],
      "min": [
        2612.909912109375,
        2349.81005859375,
        70.84249877929688
      ],
      "type": "VEC3"
    },
    {
      "bufferView": 2,
      "byteOffset": 1267248,
      "componentType": 5126,
      "count": 5082,
      "max": [
        1.0,
        1.0,
        1.0
      ],
      "min": [
        -1.0,
        -1.0,
        -1.0
      ],
      "type": "VEC3"
    },
    {
      "bufferView": 1,
      "byteOffset": 402088,
      "componentType": 5126,
      "count": 5082,
      "max": [
        39.25199890136719,
        39.25199890136719
      ],
      "min": [
        -39.25199890136719,
        -3.866650104522705
      ],
      "type": "VEC2"
    },
    {
      "bufferView": 0,
      "byteOffset": 366876,
      "componentType": 5125,
      "count": 9834,
      "type": "SCALAR"
    },
    {
      "bufferView": 2,
      "byteOffset": 1328232,
      "componentType": 5126,
      "count": 5082,
      "max": [
        2917.5,
        2506.179931640625,
        136.1179962158203
      ],
      "min": [
        2612.909912109375,
        2349.81005859375,
        70.84249877929688
      ],
      "type": "VEC3"
    },
    {
      "bufferView": 2,
      "byteOffset": 1389216,
      "componentType": 5126,
      "count": 5082,
      "max": [
        1.0,
        1.0,
        1.0
      ],
      "min": [
        -1.0,
        -1.0,
        -1.0
      ],
      "type": "VEC3"
    },
    {
      "bufferView": 1,
      "byteOffset": 442744,
      "componentType": 5126,
      "count": 5082,
      "max": [
        39.25199890136719,
        39.25199890136719
      ],
      "min": [
        -39.25199890136719,
        -3.866650104522705
      ],
      "type": "VEC2"
    },
    {
      "bufferView": 0,
      "byteOffset": 406212,
      "componentType": 5125,
      "count": 9834,
      "type": "SCALAR"
    },
    {
      "bufferView": 2,
      "byteOffset": 1450200,
      "componentType": 5126,
      "count": 5082,
      "max": [
        2917.5,
        2506.179931640625,
        136.1179962158203
      ],
      "min": [
        2612.909912109375,
        2388.820068359375,
        70.84249877929688
      ],
      "type": "VEC3"
    },
    {
      "bufferView": 2,
      "byteOffset": 1511184,
      "componentType": 5126,
      "count": 5082,
      "max": [
        1.0,
        1.0,
        1.0
      ],
      "min": [
        -1.0,
        -1.0,
        -1.0
      ],
      "type": "VEC3"
    },
    {
      "bufferView": 1,
      "byteOffset": 483400,
      "componentType": 5126,
      "count": 5082,
      "max": [
        39.25199890136719,
        39.25199890136719
      ],
      "min": [
        -39.25199890136719,
        -3.866650104522705
      ],
      "type": "VEC2"
    },
    {
      "bufferView": 0,
      "byteOffset": 445548,
      "componentType": 5125,
      "count": 9834,
      "type": "SCALAR"
    },
    {
      "bufferView": 2,
      "byteOffset": 1572168,
      "componentType": 5126,
      "count": 5082,
      "max": [
        2896.75,
        2506.179931640625,
        136.1179962158203
      ],
      "min": [
        2612.909912109375,
        2349.81005859375,
        70.84249877929688
      ],
      "type": "VEC3"
    },
    {
      "bufferView": 2,
      "byteOffset": 1633152,
      "componentType": 5126,
      "count": 5082,
      "max": [
        1.0,
        1.0,
        1.0
      ],
      "min": [
        -1.0,
        -1.0,
        -1.0
      ],
      "type": "VEC3"
    },
    {
      "bufferView": 1,
      "byteOffset": 524056,
      "componentType": 5126,
      "count": 5082,
      "max": [
        39.25199890136719,
        39.25199890136719
      ],
      "min": [
        -39.25199890136719,
        -3.866650104522705
      ],
      "type": "VEC2"
    },
    {
      "bufferView": 0,
      "byteOffset": 484884,
      "componentType": 5125,
      "count": 9834,
      "type": "SCALAR"
    },
    {
      "bufferView": 2,
      "byteOffset": 1694136,
      "componentType": 5126,
      "count": 4887,
      "max": [
        2917.5,
        2506.179931640625,
        136.1179962158203
      ],
      "min": [
        2612.909912109375,
        2349.81005859375,
        70.84249877929688
      ],
      "type": "VEC3"
    },
    {
      "bufferView": 2,
      "byteOffset": 1752780,
      "componentType": 5126,
      "count": 4887,
      "max": [
        1.0,
        1.0,
        1.0
      ],
      "min": [
        -1.0,
        -1.0,
        -1.0
      ],
      "type": "VEC3"
    },
    {
      "bufferView": 1,
      "byteOffset": 564712,
      "componentType": 5126,
      "count": 4887,
      "max": [
        39.25199890136719,
        39.25199890136719
      ],
      "min": [
        -39.25199890136719,
        -3.866650104522705
      ],
      "type": "VEC2"
    },
    {
      "bufferView": 0,
      "byteOffset": 524220,
      "componentType": 5125,
      "count": 9519,
      "type": "SCALAR"
    },
    {
      "bufferView": 2,
      "byteOffset": 1811424,
      "componentType": 5126,
      "count": 5024,
      "max": [
        2850.89990234375,
        2506.139892578125,
        136.07899475097656
      ],
      "min": [
        2746.47998046875,
        2388.860107421875,
        85.94090270996094
      ],
      "type": "VEC3"
    },
    {
      "bufferView": 2,
      "byteOffset": 1871712,
      "componentType": 5126,
      "count": 5024,
      "max": [
        1.0,
        1.0,
        1.0
      ],
      "min": [
        -1.0,
        -1.0,
        -1.0
      ],
      "type": "VEC3"
    },
    {
      "bufferView": 1,
      "byteOffset": 603808,
      "componentType": 5126,
      "count": 5024,
      "max": [
        17.899599075317383,
        17.7893009185791
      ],
      "min": [
        -17.899599075317383,
        -2.833709955215454
      ],
      "type": "VEC2"
    },
    {
      "bufferView": 0,
      "byteOffset": 562296,
      "componentType": 5125,
      "count": 9888,
      "type": "SCALAR"
    },
    {
      "bufferView": 2,
      "byteOffset": 1932000,
      "componentType": 5126,
      "count": 5024,
      "max": [
        2850.89990234375,
        2506.139892578125,
        136.07899475097656
      ],
      "min": [
        2746.47998046875,
        2349.840087890625,
        85.94090270996094
      ],
      "type": "VEC3"
    },
    {
      "bufferView": 2,
      "byteOffset": 1992288,
      "componentType": 5126,
      "count": 5024,
      "max": [
        1.0,
        1.0,
        1.0
      ],
      "min": [
        -1.0,
        -1.0,
        -1.0
      ],
      "type": "VEC3"
    },
    {
      "bufferView": 1,
      "byteOffset": 644000,
      "componentType": 5126,
      "count": 5024,
      "max": [
        17.899599075317383,
        17.7893009185791
      ],
      "min": [
        -17.899599075317383,
        -2.833709955215454
      ],
      "type": "VEC2"
    },
    {
      "bufferView": 0,
      "byteOffset": 601848,
      "componentType": 5125,
      "count": 9888,
      "type": "SCALAR"
    },
    {
      "bufferView": 2,
      "byteOffset": 2052576,
      "componentType": 5126,
      "count": 5024,
      "max": [
        2850.89990234375,
        2506.139892578125,
        136.07899475097656
      ],
      "min": [
        2813.449951171875,
        2349.840087890625,
        85.94090270996094
      ],
      "type": "VEC3"
    },
    {
      "bufferView": 2,
      "byteOffset": 2112864,
      "componentType": 5126,
      "count": 5024,
      "max": [
        1.0,
        1.0,
        1.0
      ],
      "min": [
        -1.0,
        -1.0,
        -1.0
      ],
      "type": "VEC3"
    },
    {
      "bufferView": 1,
      "byteOffset": 684192,
      "componentType": 5126,
      "count": 5024,
      "max": [
        17.899599075317383,
        17.7893009185791
      ],
      "min": [
        -17.899599075317383,
        -2.833709955215454
      ],
      "type": "VEC2"
    },
    {
      "bufferView": 0,
      "byteOffset": 641400,
      "componentType": 5125,
      "count": 9888,
      "type": "SCALAR"
    },
    {
      "bufferView": 2,
      "byteOffset": 2173152,
      "componentType": 5126,
      "count": 5024,
      "max": [
        2850.89990234375,
        2506.139892578125,
        136.07899475097656
      ],
      "min": [
        2746.47998046875,
        2349.840087890625,
        85.94090270996094
      ],
      "type": "VEC3"
    },
    {
      "bufferView": 2,
      "byteOffset": 2233440,
      "componentType": 5126,
      "count": 5024,
      "max": [
        1.0,
        1.0,
        1.0
      ],
      "min": [
        -1.0,
        -1.0,
        -1.0
      ],
      "type": "VEC3"
    },
    {
      "bufferView": 1,
      "byteOffset": 724384,
      "componentType": 5126,
      "count": 5024,
      "max": [
        17.899599075317383,
        17.7893009185791
      ],
      "min": [
        -17.899599075317383,
        -2.833709955215454
      ],
      "type": "VEC2"
    },
    {
      "bufferView": 0,
      "byteOffset": 680952,
      "componentType": 5125,
      "count": 9888,
      "type": "SCALAR"
    },
    {
      "bufferView": 2,
      "byteOffset": 2293728,
      "componentType": 5126,
      "count": 5024,
      "max": [
        2850.89990234375,
        2506.139892578125,
        136.07899475097656
      ],
      "min": [
        2746.47998046875,
        2349.840087890625,
        85.94090270996094
      ],
      "type": "VEC3"
    },
    {
      "bufferView": 2,
      "byteOffset": 2354016,
      "componentType": 5126,
      "count": 5024,
      "max": [
        1.0,
        1.0,
        1.0
      ],
      "min": [
        -1.0,
        -1.0,
        -1.0
      ],
      "type": "VEC3"
    },
    {
      "bufferView": 1,
      "byteOffset": 764576,
      "componentType": 5126,
      "count": 5024,
      "max": [
        17.899599075317383,
        17.7893009185791
      ],
      "min": [
        -17.899599075317383,
        -2.833709955215454
      ],
      "type": "VEC2"
    },
    {
      "bufferView": 0,
      "byteOffset": 720504,
      "componentType": 5125,
      "count": 9888,
      "type": "SCALAR"
    },
    {
      "bufferView": 2,
      "byteOffset": 2414304,
      "componentType": 5126,
      "count": 5024,
      "max": [
        2850.89990234375,
        2467.1298828125,
        136.07899475097656
      ],
      "min": [
        2746.47998046875,
        2349.840087890625,
        85.94090270996094
      ],
      "type": "VEC3"
    },
    {
      "bufferView": 2,
      "byteOffset": 2474592,
      "componentType": 5126,
      "count": 5024,
      "max": [
        1.0,
        1.0,
        1.0
      ],
      "min": [
        -1.0,
        -1.0,
        -1.0
      ],
      "type": "VEC3"
    },
    {
      "bufferView": 1,
      "byteOffset": 804768,
      "componentType": 5126,
      "count": 5024,
      "max": [
        17.899599075317383,
        17.7893009185791
      ],
      "min": [
        -17.899599075317383,
        -2.833709955215454
      ],
      "type": "VEC2"
    },
    {
      "bufferView": 0,
      "byteOffset": 760056,
      "componentType": 5125,
      "count": 9888,
      "type": "SCALAR"
    },
    {
      "bufferView": 2,
      "byteOffset": 2534880,
      "componentType": 5126,
      "count": 5024,
      "max": [
        2850.89990234375,
        2506.139892578125,
        136.07899475097656
      ],
      "min": [
        2746.47998046875,
        2388.860107421875,
        85.94090270996094
      ],
      "type": "VEC3"
    },
    {
      "bufferView": 2,
      "byteOffset": 2595168,
      "componentType": 5126,
      "count": 5024,
      "max": [
        1.0,
        1.0,
        1.0
      ],
      "min": [
        -1.0,
        -1.0,
        -1.0
      ],
      "type": "VEC3"
    },
    {
      "bufferView": 1,
      "byteOffset": 844960,
      "componentType": 5126,
      "count": 5024,
      "max": [
        17.899599075317383,
        17.7893009185791
      ],
      "min": [
        -17.899599075317383,
        -2.833709955215454
      ],
      "type": "VEC2"
    },
    {
      "bufferView": 0,
      "byteOffset": 799608,
      "componentType": 5125,
      "count": 9888,
      "type": "SCALAR"
    },
    {
      "bufferView": 2,
      "byteOffset": 2655456,
      "componentType": 5126,
      "count": 5024,
      "max": [
        2917.8798828125,
        2506.139892578125,
        136.07899475097656
      ],
      "min": [
        2746.47998046875,
        2388.860107421875,
        85.94090270996094
      ],
      "type": "VEC3"
    },
    {
      "bufferView": 2,
      "byteOffset": 2715744,
      "componentType": 5126,
      "count": 5024,
      "max": [
        1.0,
        1.0,
        1.0
      ],
      "min": [
        -1.0,
        -1.0,
        -1.0
      ],
      "type": "VEC3"
    },
    {
      "bufferView": 1,
      "byteOffset": 885152,
      "componentType": 5126,
      "count": 5024,
      "max": [
        17.899599075317383,
        17.7893009185791
      ],
      "min": [
        -17.899599075317383,
        -2.833709955215454
      ],
      "type": "VEC2"
    },
    {
      "bufferView": 0,
      "byteOffset": 839160,
      "componentType": 5125,
      "count": 9906,
      "type": "SCALAR"
    },
    {
      "bufferView": 2,
      "byteOffset": 2776032,
      "componentType": 5126,
      "count": 5024,
      "max": [
        2917.8798828125,
        2506.139892578125,
        136.07899475097656
      ],
      "min": [
        2679.5,
        2349.840087890625,
        85.94090270996094
      ],
      "type": "VEC3"
    },
    {
      "bufferView": 2,
      "byteOffset": 2836320,
      "componentType": 5126,
      "count": 5024,
      "max": [
        1.0,
        1.0,
        1.0
      ],
      "min": [
        -1.0,
        -1.0,
        -1.0
      ],
      "type": "VEC3"
    },
    {
      "bufferView": 1,
      "byteOffset": 925344,
      "componentType": 5126,
      "count": 5024,
      "max": [
        17.899599075317383,
        17.7893009185791
      ],
      "min": [
        -17.899599075317383,
        -2.833709955215454
      ],
      "type": "VEC2"
    },
    {
      "bufferView": 0,
      "byteOffset": 878784,
      "componentType": 5125,
      "count": 9936,
      "type": "SCALAR"
    },
    {
      "bufferView": 2,
      "byteOffset": 2896608,
      "componentType": 5126,
      "count": 5024,
      "max": [
        2917.8798828125,
        2467.1298828125,
        136.07899475097656
      ],
      "min": [
        2612.530029296875,
        2388.860107421875,
        85.94090270996094
      ],
      "type": "VEC3"
    },
    {
      "bufferView": 2,
      "byteOffset": 2956896,
      "componentType": 5126,
      "count": 5024,
      "max": [
        1.0,
        1.0,
        1.0
      ],
      "min": [
        -1.0,
        -1.0,
        -1.0
      ],
      "type": "VEC3"
    },
    {
      "bufferView": 1,
      "byteOffset": 965536,
      "componentType": 5126,
      "count": 5024,
      "max": [
        17.899599075317383,
        17.7893009185791
      ],
      "min": [
        -17.899599075317383,
        -2.833709955215454
      ],
      "type": "VEC2"
    },
    {
      "bufferView": 0,
      "byteOffset": 918528,
      "componentType": 5125,
      "count": 9936,
      "type": "SCALAR"
    },
    {
      "bufferView": 2,
      "byteOffset": 3017184,
      "componentType": 5126,
      "count": 5024,
      "max": [
        2917.8798828125,
        2506.139892578125,
        136.07899475097656
      ],
      "min": [
        2612.530029296875,
        2388.860107421875,
        85.94090270996094
      ],
      "type": "VEC3"
    },
    {
      "bufferView": 2,
      "byteOffset": 3077472,
      "componentType": 5126,
      "count": 5024,
      "max": [
        1.0,
        1.0,
        1.0
      ],
      "min": [
        -1.0,
        -1.0,
        -1.0
      ],
      "type": "VEC3"
    },
    {
      "bufferView": 1,
      "byteOffset": 1005728,
      "componentType": 5126,
      "count": 5024,
      "max": [
        17.899599075317383,
        17.7893009185791
      ],
      "min": [
        -17.899599075317383,
        -2.833709955215454
      ],
      "type": "VEC2"
    },
    {
      "bufferView": 0,
      "byteOffset": 958272,
      "componentType": 5125,
      "count": 9936,
      "type": "SCALAR"
    },
    {
      "bufferView": 2,
      "byteOffset": 3137760,
      "componentType": 5126,
      "count": 5024,
      "max": [
        2649.97998046875,
        2506.139892578125,
        136.07899475097656
      ],
      "min": [
        2612.530029296875,
        2349.840087890625,
        85.94090270996094
      ],
      "type": "VEC3"
    },
    {
      "bufferView": 2,
      "byteOffset": 3198048,
      "componentType": 5126,
      "count": 5024,
      "max": [
        1.0,
        1.0,
        1.0
      ],
      "min": [
        -1.0,
        -1.0,
        -1.0
      ],
      "type": "VEC3"
    },
    {
      "bufferView": 1,
      "byteOffset": 1045920,
      "componentType": 5126,
      "count": 5024,
      "max": [
        17.899599075317383,
        17.7893009185791
      ],
      "min": [
        -17.899599075317383,
        -2.833709955215454
      ],
      "type": "VEC2"
    },
    {
      "bufferView": 0,
      "byteOffset": 998016,
      "componentType": 5125,
      "count": 9936,
      "type": "SCALAR"
    },
    {
      "bufferView": 2,
      "byteOffset": 3258336,
      "componentType": 5126,
      "count": 5024,
      "max": [
        2917.8798828125,
        2428.110107421875,
        136.07899475097656
      ],
      "min": [
        2612.530029296875,
        2349.840087890625,
        85.94090270996094
      ],
      "type": "VEC3"
    },
    {
      "bufferView": 2,
      "byteOffset": 3318624,
      "componentType": 5126,
      "count": 5024,
      "max": [
        1.0,
        1.0,
        1.0
      ],
      "min": [
        -1.0,
        -1.0,
        -1.0
      ],
      "type": "VEC3"
    },
    {
      "bufferView": 1,
      "byteOffset": 1086112,
      "componentType": 5126,
      "count": 5024,
      "max": [
        17.899599075317383,
        17.7893009185791
      ],
      "min": [
        -17.899599075317383,
        -2.833709955215454
      ],
      "type": "VEC2"
    },
    {
      "bufferView": 0,
      "byteOffset": 1037760,
      "componentType": 5125,
      "count": 9936,
      "type": "SCALAR"
    },
    {
      "bufferView": 2,
      "byteOffset": 3378912,
      "componentType": 5126,
      "count": 5024,
      "max": [
        2917.8798828125,
        2467.1298828125,
        136.07899475097656
      ],
      "min": [
        2612.530029296875,
        2349.840087890625,
        85.94090270996094
      ],
      "type": "VEC3"
    },
    {
      "bufferView": 2,
      "byteOffset": 3439200,
      "componentType": 5126,
      "count": 5024,
      "max": [
        1.0,
        1.0,
        1.0
      ],
      "min": [
        -1.0,
        -1.0,
        -1.0
      ],
      "type": "VEC3"
    },
    {
      "bufferView": 1,
      "byteOffset": 1126304,
      "componentType": 5126,
      "count": 5024,
      "max": [
        17.899599075317383,
        17.7893009185791
      ],
      "min": [
        -17.899599075317383,
        -2.833709955215454
      ],
      "type": "VEC2"
    },
    {
      "bufferView": 0,
      "byteOffset": 1077504,
      "componentType": 5125,
      "count": 9936,
      "type": "SCALAR"
    },
    {
      "bufferView": 2,
      "byteOffset": 3499488,
      "componentType": 5126,
      "count": 5024,
      "max": [
        2917.8798828125,
        2506.139892578125,
        136.07899475097656
      ],
      "min": [
        2679.5,
        2349.840087890625,
        85.94090270996094
      ],
      "type": "VEC3"
    },
    {
      "bufferView": 2,
      "byteOffset": 3559776,
      "componentType": 5126,
      "count": 5024,
      "max": [
        1.0,
        1.0,
        1.0
      ],
      "min": [
        -1.0,
        -1.0,
        -1.0
      ],
      "type": "VEC3"
    },
    {
      "bufferView": 1,
      "byteOffset": 1166496,
      "componentType": 5126,
      "count": 5024,
      "max": [
        17.899599075317383,
        17.7893009185791
      ],
      "min": [
        -17.899599075317383,
        -2.833709955215454
      ],
      "type": "VEC2"
    },
    {
      "bufferView": 0,
      "byteOffset": 1117248,
      "componentType": 5125,
      "count": 9936,
      "type": "SCALAR"
    },
    {
      "bufferView": 2,
      "byteOffset": 3620064,
      "componentType": 5126,
      "count": 5024,
      "max": [
        2716.949951171875,
        2506.139892578125,
        136.07899475097656
      ],
      "min": [
        2612.530029296875,
        2349.840087890625,
        85.94090270996094
      ],
      "type": "VEC3"
    },
    {
      "bufferView": 2,
      "byteOffset": 3680352,
      "componentType": 5126,
      "count": 5024,
      "max": [
        1.0,
        1.0,
        1.0
      ],
      "min": [
        -1.0,
        -1.0,
        -1.0
      ],
      "type": "VEC3"
    },
    {
      "bufferView": 1,
      "byteOffset": 1206688,
      "componentType": 5126,
      "count": 5024,
      "max": [
        17.899599075317383,
        17.7893009185791
      ],
      "min": [
        -17.899599075317383,
        -2.833709955215454
      ],
      "type": "VEC2"
    },
    {
      "bufferView": 0,
      "byteOffset": 1156992,
      "componentType": 5125,
      "count": 9936,
      "type": "SCALAR"
    },
    {
      "bufferView": 2,
      "byteOffset": 3740640,
      "componentType": 5126,
      "count": 5024,
      "max": [
        2716.949951171875,
        2467.010009765625,
        136.07899475097656
      ],
      "min": [
        2612.530029296875,
        2349.840087890625,
        85.94090270996094
      ],
      "type": "VEC3"
    },
    {
      "bufferView": 2,
      "byteOffset": 3800928,
      "componentType": 5126,
      "count": 5024,
      "max": [
        1.0,
        1.0,
        1.0
      ],
      "min": [
        -1.0,
        -1.0,
        -1.0
      ],
      "type": "VEC3"
    },
    {
      "bufferView": 1,
      "byteOffset": 1246880,
      "componentType": 5126,
      "count": 5024,
      "max": [
        17.899599075317383,
        17.7893009185791
      ],
      "min": [
        -17.899599075317383,
        -2.833709955215454
      ],
      "type": "VEC2"
    },
    {
      "bufferView": 0,
      "byteOffset": 1196736,
      "componentType": 5125,
      "count": 9936,
      "type": "SCALAR"
    },
    {
      "bufferView": 2,
      "byteOffset": 3861216,
      "componentType": 5126,
      "count": 5024,
      "max": [
        2917.8798828125,
        2506.139892578125,
        136.07899475097656
      ],
      "min": [
        2679.5,
        2388.860107421875,
        85.94090270996094
      ],
      "type": "VEC3"
    },
    {
      "bufferView": 2,
      "byteOffset": 3921504,
      "componentType": 5126,
      "count": 5024,
      "max": [
        1.0,
        1.0,
        1.0
      ],
      "min": [
        -1.0,
        -1.0,
        -1.0
      ],
      "type": "VEC3"
    },
    {
      "bufferView": 1,
      "byteOffset": 1287072,
      "componentType": 5126,
      "count": 5024,
      "max": [
        17.899599075317383,
        17.7893009185791
      ],
      "min": [
        -17.899599075317383,
        -2.833709955215454
      ],
      "type": "VEC2"
    },
    {
      "bufferView": 0,
      "byteOffset": 1236480,
      "componentType": 5125,
      "count": 9954,
      "type": "SCALAR"
    },
    {
      "bufferView": 2,
      "byteOffset": 3981792,
      "componentType": 5126,
      "count": 5024,
      "max": [
        2898.330078125,
        2506.139892578125,
        136.07899475097656
      ],
      "min": [
        2880.429931640625,
        2349.840087890625,
        85.94090270996094
      ],
      "type": "VEC3"
    },
    {
      "bufferView": 2,
      "byteOffset": 4042080,
      "componentType": 5126,
      "count": 5024,
      "max": [
        1.0,
        1.0,
        1.0
      ],
      "min": [
        -1.0,
        -1.0,
        -1.0
      ],
      "type": "VEC3"
    },
    {
      "bufferView": 1,
      "byteOffset": 1327264,
      "componentType": 5126,
      "count": 5024,
      "max": [
        17.899599075317383,
        17.7893009185791
      ],
      "min": [
        -17.899599075317383,
        -2.833709955215454
      ],
      "type": "VEC2"
    },
    {
      "bufferView": 0,
      "byteOffset": 1276296,
      "componentType": 5125,
      "count": 9984,
      "type": "SCALAR"
    },
    {
      "bufferView": 2,
      "byteOffset": 4102368,
      "componentType": 5126,
      "count": 3850,
      "max": [
        3456.5,
        3636.159912109375,
        136.07899475097656
      ],
      "min": [
        1735.5,
        1845.0,
        66.0
      ],
      "type": "VEC3"
    },
    {
      "bufferView": 2,
      "byteOffset": 4148568,
      "componentType": 5126,
      "count": 3850,
      "max": [
        1.0,
        1.0,
        1.0
      ],
      "min": [
        -1.0,
        -1.0,
        -1.0
      ],
      "type": "VEC3"
    },
    {
      "bufferView": 1,
      "byteOffset": 1367456,
      "componentType": 5126,
      "count": 3850,
      "max": [
        1721.0,
        1791.1600341796875
      ],
      "min": [
        -17.899599075317383,
        -2.833709955215454
      ],
      "type": "VEC2"
    },
    {
      "bufferView": 0,
      "byteOffset": 1316232,
      "componentType": 5125,
      "count": 8637,
      "type": "SCALAR"
    },
    {
      "bufferView": 2,
      "byteOffset": 4194768,
      "componentType": 5126,
      "count": 4377,
      "max": [
        1976.75,
        3637.469970703125,
        137.65199279785156
      ],
      "min": [
        1769.6500244140625,
        3472.97998046875,
        71.25499725341797
      ],
      "type": "VEC3"
    },
    {
      "bufferView": 2,
      "byteOffset": 4247292,
      "componentType": 5126,
      "count": 4377,
      "max": [
        0.995884358882904,
        0.9980481266975403,
        1.0
      ],
      "min": [
        -0.995884358882904,
        -0.9980481266975403,
        -1.0
      ],
      "type": "VEC3"
    },
    {
      "bufferView": 1,
      "byteOffset": 1398256,
      "componentType": 5126,
      "count": 4377,
      "max": [
        183.16799926757813,
        216.08700561523438
      ],
      "min": [
        -218.50999450683594,
        -215.89199829101563
      ],
      "type": "VEC2"
    },
    {
      "bufferView": 0,
      "byteOffset": 1350780,
      "componentType": 5125,
      "count": 7983,
      "type": "SCALAR"
    },
    {
      "bufferView": 2,
      "byteOffset": 4299816,
      "componentType": 5126,
      "count": 4377,
      "max": [
        1976.75,
        3637.469970703125,
        186.33200073242188
      ],
      "min": [
        1769.6500244140625,
        3472.97998046875,
        119.93499755859375
      ],
      "type": "VEC3"
    },
    {
      "bufferView": 2,
      "byteOffset": 4352340,
      "componentType": 5126,
      "count": 4377,
      "max": [
        0.995884358882904,
        0.9980481266975403,
        1.0
      ],
      "min": [
        -0.995884358882904,
        -0.9980481266975403,
        -1.0
      ],
      "type": "VEC3"
    },
    {
      "bufferView": 1,
      "byteOffset": 1433272,
      "componentType": 5126,
      "count": 4377,
      "max": [
        183.16799926757813,
        216.08700561523438
      ],
      "min": [
        -218.50999450683594,
        -215.89199829101563
      ],
      "type": "VEC2"
    },
    {
      "bufferView": 0,
      "byteOffset": 1382712,
      "componentType": 5125,
      "count": 7983,
      "type": "SCALAR"
    },
    {
      "bufferView": 2,
      "byteOffset": 4404864,
      "componentType": 5126,
      "count": 4377,
      "max": [
        1976.75,
        3637.469970703125,
        202.55799865722656
      ],
      "min": [
        1769.6500244140625,
        3472.97998046875,
        103.70800018310547
      ],
      "type": "VEC3"
    },
    {
      "bufferView": 2,
      "byteOffset": 4457388,
      "componentType": 5126,
      "count": 4377,
      "max": [
        0.995884358882904,
        0.9980481266975403,
        1.0
      ],
      "min": [
        -0.995884358882904,
        -0.9980481266975403,
        -1.0
      ],
      "type": "VEC3"
    },
    {
      "bufferView": 1,
      "byteOffset": 1468288,
      "componentType": 5126,
      "count": 4377,
      "max": [
        183.16799926757813,
        216.08700561523438
      ],
      "min": [
        -218.50999450683594,
        -215.89199829101563
      ],
      "type": "VEC2"
    },
    {
      "bufferView": 0,
      "byteOffset": 1414644,
      "componentType": 5125,
      "count": 7983,
      "type": "SCALAR"
    },
    {
      "bufferView": 2,
      "byteOffset": 4509912,
      "componentType": 5126,
      "count": 4437,
      "max": [
        2411.610107421875,
        3836.4599609375,
        186.33200073242188
      ],
      "min": [
        2242.340087890625,
        3607.489990234375,
        87.48159790039063
      ],
      "type": "VEC3"
    },
    {
      "bufferView": 2,
      "byteOffset": 4563156,
      "componentType": 5126,
      "count": 4437,
      "max": [
        0.9996070265769958,
        0.996687650680542,
        1.0
      ],
      "min": [
        -0.9996070265769958,
        -0.996687650680542,
        -1.0
      ],
      "type": "VEC3"
    },
    {
      "bufferView": 1,
      "byteOffset": 1503304,
      "componentType": 5126,
      "count": 4437,
      "max": [
        183.16799926757813,
        216.08700561523438
      ],
      "min": [
        -218.50999450683594,
        -215.89199829101563
      ],
      "type": "VEC2"
    },
    {
      "bufferView": 0,
      "byteOffset": 1446576,
      "componentType": 5125,
      "count": 8091,
      "type": "SCALAR"
    },
    {
      "bufferView": 2,
      "byteOffset": 4616400,
      "componentType": 5126,
      "count": 4437,
      "max": [
        2411.610107421875,
        3836.4599609375,
        202.55799865722656
      ],
      "min": [
        2242.340087890625,
        3607.489990234375,
        71.25499725341797
      ],
      "type": "VEC3"
    },
    {
      "bufferView": 2,
      "byteOffset": 4669644,
      "componentType": 5126,
      "count": 4437,
      "max": [
        0.9996070265769958,
        0.996687650680542,
        1.0
      ],
      "min": [
        -0.9996070265769958,
        -0.996687650680542,
        -1.0
      ],
      "type": "VEC3"
    },
    {
      "bufferView": 1,
      "byteOffset": 1538800,
      "componentType": 5126,
      "count": 4437,
      "max": [
        183.16799926757813,
        216.08700561523438
      ],
      "min": [
        -218.50999450683594,
        -215.89199829101563
      ],
      "type": "VEC2"
    },
    {
      "bufferView": 0,
      "byteOffset": 1478940,
      "componentType": 5125,
      "count": 8091,
      "type": "SCALAR"
    },
    {
      "bufferView": 2,
      "byteOffset": 4722888,
      "componentType": 5126,
      "count": 4437,
      "max": [
        2411.610107421875,
        3836.4599609375,
        153.8780059814453
      ],
      "min": [
        2242.340087890625,
        3607.489990234375,
        119.93499755859375
      ],
      "type": "VEC3"
    },
    {
      "bufferView": 2,
      "byteOffset": 4776132,
      "componentType": 5126,
      "count": 4437,
      "max": [
        0.9996070265769958,
        0.996687650680542,
        1.0
      ],
      "min": [
        -0.9996070265769958,
        -0.996687650680542,
        -1.0
      ],
      "type": "VEC3"
    },
    {
      "bufferView": 1,
      "byteOffset": 1574296,
      "componentType": 5126,
      "count": 4437,
      "max": [
        183.16799926757813,
        216.08700561523438
      ],
      "min": [
        -218.50999450683594,
        -215.89199829101563
      ],
      "type": "VEC2"
    },
    {
      "bufferView": 0,
      "byteOffset": 1511304,
      "componentType": 5125,
      "count": 8091,
      "type": "SCALAR"
    },
    {
      "bufferView": 2,
      "byteOffset": 4829376,
      "componentType": 5126,
      "count": 4446,
      "max": [
        2092.679931640625,
        3920.56005859375,
        202.55799865722656
      ],
      "min": [
        1942.760009765625,
        3674.81005859375,
        119.93499755859375
      ],
      "type": "VEC3"
    },
    {
      "bufferView": 2,
      "byteOffset": 4882728,
      "componentType": 5126,
      "count": 4446,
      "max": [
        0.9999409914016724,
        0.983884871006012,
        1.0
      ],
      "min": [
        -0.9999409914016724,
        -0.983884871006012,
        -1.0
      ],
      "type": "VEC3"
    },
    {
      "bufferView": 1,
      "byteOffset": 1609792,
      "componentType": 5126,
      "count": 4446,
      "max": [
        183.16799926757813,
        216.08700561523438
      ],
      "min": [
        -218.50999450683594,
        -215.89199829101563
      ],
      "type": "VEC2"
    },
    {
      "bufferView": 0,
      "byteOffset": 1543668,
      "componentType": 5125,
      "count": 8118,
      "type": "SCALAR"
    },
    {
      "bufferView": 2,
      "byteOffset": 4936080,
      "componentType": 5126,
      "count": 4446,
      "max": [
        2092.679931640625,
        3920.56005859375,
        186.33200073242188
      ],
      "min": [
        1942.760009765625,
        3674.81005859375,
        71.25499725341797
      ],
      "type": "VEC3"
    },
    {
      "bufferView": 2,
      "byteOffset": 4989432,
      "componentType": 5126,
      "count": 4446,
      "max": [
        0.9999409914016724,
        0.983884871006012,
        1.0
      ],
      "min": [
        -0.9999409914016724,
        -0.983884871006012,
        -1.0
      ],
      "type": "VEC3"
    },
    {
      "bufferView": 1,
      "byteOffset": 1645360,
      "componentType": 5126,
      "count": 4446,
      "max": [
        183.16799926757813,
        216.08700561523438
      ],
      "min": [
        -218.50999450683594,
        -215.89199829101563
      ],
      "type": "VEC2"
    },
    {
      "bufferView": 0,
      "byteOffset": 1576140,
      "componentType": 5125,
      "count": 8118,
      "type": "SCALAR"
    },
    {
      "bufferView": 2,
      "byteOffset": 5042784,
      "componentType": 5126,
      "count": 4446,
      "max": [
        2092.679931640625,
        3920.56005859375,
        170.10499572753906
      ],
      "min": [
        1942.760009765625,
        3674.81005859375,
        87.48159790039063
      ],
      "type": "VEC3"
    },
    {
      "bufferView": 2,
      "byteOffset": 5096136,
      "componentType": 5126,
      "count": 4446,
      "max": [
        0.9999409914016724,
        0.983884871006012,
        1.0
      ],
      "min": [
        -0.9999409914016724,
        -0.983884871006012,
        -1.0
      ],
      "type": "VEC3"
    },
    {
      "bufferView": 1,
      "byteOffset": 1680928,
      "componentType": 5126,
      "count": 4446,
      "max": [
        183.16799926757813,
        216.08700561523438
      ],
      "min": [
        -218.50999450683594,
        -215.89199829101563
      ],
      "type": "VEC2"
    },
    {
      "bufferView": 0,
      "byteOffset": 1608612,
      "componentType": 5125,
      "count": 8118,
      "type": "SCALAR"
    },
    {
      "bufferView": 2,
      "byteOffset": 5149488,
      "componentType": 5126,
      "count": 3098,
      "max": [
        2530.489990234375,
        3361.989990234375,
        96.5
      ],
      "min": [
        2320.590087890625,
        3164.179931640625,
        66.0
      ],
      "type": "VEC3"
    },
    {
      "bufferView": 2,
      "byteOffset": 5186664,
      "componentType": 5126,
      "count": 3098,
      "max": [
        0.9999961256980896,
        0.9999722242355347,
        1.0
      ],
      "min": [
        -0.9999961256980896,
        -0.9999696016311646,
        -1.0
      ],
      "type": "VEC3"
    },
    {
      "bufferView": 1,
      "byteOffset": 1716496,
      "componentType": 5126,
      "count": 3098,
      "max": [
        236.64700317382813,
        197.81300354003906
      ],
      "min": [
        -244.53799438476563,
        -21.189599990844727
      ],
      "type": "VEC2"
    },
    {
      "bufferView": 0,
      "byteOffset": 1641084,
      "componentType": 5125,
      "count": 6666,
      "type": "SCALAR"
    },
    {
      "bufferView": 2,
      "byteOffset": 5223840,
      "componentType": 5126,
      "count": 34204,
      "max": [
        4017.9599609375,
        3956.0,
        582.0
      ],
      "min": [
        1387.469970703125,
        1714.47998046875,
        -114.0
      ],
      "type": "VEC3"
    },
    {
      "bufferView": 2,
      "byteOffset": 5634288,
      "componentType": 5126,
      "count": 34204,
      "max": [
        1.0,
        1.0,
        1.0
      ],
      "min": [
        -1.0,
        -1.0,
        -1.0
      ],
      "type": "VEC3"
    },
    {
      "bufferView": 1,
      "byteOffset": 1741280,
      "componentType": 5126,
      "count": 34204,
      "max": [
        4699.419921875,
        3982.159912109375
      ],
      "min": [
        -4696.4599609375,
        -3930.1298828125
      ],
      "type": "VEC2"
    },
    {
      "bufferView": 0,
      "byteOffset": 1667748,
      "componentType": 5125,
      "count": 71544,
      "type": "SCALAR"
    },
    {
      "bufferView": 2,
      "byteOffset": 6044736,
      "componentType": 5126,
      "count": 2726,
      "max": [
        2405.570068359375,
        3914.56005859375,
        185.0229949951172
      ],
      "min": [
        1773.1400146484375,
        3482.72998046875,
        111.08100128173828
      ],
      "type": "VEC3"
    },
    {
      "bufferView": 2,
      "byteOffset": 6077448,
      "componentType": 5126,
      "count": 2726,
      "max": [
        1.0,
        1.0,
        1.0
      ],
      "min": [
        -1.0,
        -1.0,
        -1.0
      ],
      "type": "VEC3"
    },
    {
      "bufferView": 1,
      "byteOffset": 2014912,
      "componentType": 5126,
      "count": 2726,
      "max": [
        41.62139892578125,
        39.341400146484375
      ],
      "min": [
        -41.62929916381836,
        -31.622400283813477
      ],
      "type": "VEC2"
    },
    {
      "bufferView": 0,
      "byteOffset": 1953924,
      "componentType": 5125,
      "count": 4857,
      "type": "SCALAR"
    },
    {
      "bufferView": 2,
      "byteOffset": 6110160,
      "componentType": 5126,
      "count": 36,
      "max": [
        2402.39990234375,
        3912.800048828125,
        183.6999969482422
      ],
      "min": [
        1774.8299560546875,
        3484.02001953125,
        112.40399932861328
      ],
      "type": "VEC3"
    },
    {
      "bufferView": 2,
      "byteOffset": 6110592,
      "componentType": 5126,
      "count": 36,
      "max": [
        0.9521294832229614,
        0.9659258723258972,
        0.0
      ],
      "min": [
        -1.0,
        -0.9996573328971863,
        0.0
      ],
      "type": "VEC3"
    },
    {
      "bufferView": 1,
      "byteOffset": 2036720,
      "componentType": 5126,
      "count": 36,
      "max": [
        40.99300003051758,
        23.67009925842285
      ],
      "min": [
        0.7393019795417786,
        0.7393019795417786
      ],
      "type": "VEC2"
    },
    {
      "bufferView": 0,
      "byteOffset": 1973352,
      "componentType": 5125,
      "count": 54,
      "type": "SCALAR"
    },
    {
      "bufferView": 2,
      "byteOffset": 6111024,
      "componentType": 5126,
      "count": 2775,
      "max": [
        3468.360107421875,
        3643.8701171875,
        629.677978515625
      ],
      "min": [
        1672.510009765625,
        1839.0,
        66.0
      ],
      "type": "VEC3"
    },
    {
      "bufferView": 2,
      "byteOffset": 6144324,
      "componentType": 5126,
      "count": 2775,
      "max": [
        1.0,
        1.0,
        1.0
      ],
      "min": [
        -1.0,
        -1.0,
        -1.0
      ],
      "type": "VEC3"
    },
    {
      "bufferView": 1,
      "byteOffset": 2037008,
      "componentType": 5126,
      "count": 2775,
      "max": [
        4698.2900390625,
        3643.8701171875
      ],
      "min": [
        -4697.27001953125,
        -964.9580078125
      ],
      "type": "VEC2"
    },
    {
      "bufferView": 0,
      "byteOffset": 1973568,
      "componentType": 5125,
      "count": 5250,
      "type": "SCALAR"
    },
    {
      "bufferView": 2,
      "byteOffset": 6177624,
      "componentType": 5126,
      "count": 2974,
      "max": [
        3901.25,
        3877.510009765625,
        348.0
      ],
      "min": [
        1399.5,
        1865.0,
        66.0
      ],
      "type": "VEC3"
    },
    {
      "bufferView": 2,
      "byteOffset": 6213312,
      "componentType": 5126,
      "count": 2974,
      "max": [
        1.0,
        1.0,
        1.0
      ],
      "min": [
        -1.0,
        -1.0,
        -1.0
      ],
      "type": "VEC3"
    },
    {
      "bufferView": 1,
      "byteOffset": 2059208,
      "componentType": 5126,
      "count": 2974,
      "max": [
        3075.1201171875,
        2227.0
      ],
      "min": [
        -3075.1201171875,
        -4.5474699852075806e-13
      ],
      "type": "VEC2"
    },
    {
      "bufferView": 0,
      "byteOffset": 1994568,
      "componentType": 5125,
      "count": 5412,
      "type": "SCALAR"
    },
    {
      "bufferView": 2,
      "byteOffset": 6249000,
      "componentType": 5126,
      "count": 56,
      "max": [
        3365.989990234375,
        3598.219970703125,
        66.0
      ],
      "min": [
        2776.56005859375,
        3112.429931640625,
        65.89679718017578
      ],
      "type": "VEC3"
    },
    {
      "bufferView": 2,
      "byteOffset": 6249672,
      "componentType": 5126,
      "count": 56,
      "max": [
        0.0,
        -0.0,
        1.0
      ],
      "min": [
        0.0,
        -0.0,
        -1.0
      ],
      "type": "VEC3"
    },
    {
      "bufferView": 1,
      "byteOffset": 2083000,
      "componentType": 5126,
      "count": 56,
      "max": [
        3365.989990234375,
        3399.18994140625
      ],
      "min": [
        -400.42401123046875,
        121.29000091552734
      ],
      "type": "VEC2"
    },
    {
      "bufferView": 0,
      "byteOffset": 2016216,
      "componentType": 5125,
      "count": 126,
      "type": "SCALAR"
    },
    {
      "bufferView": 2,
      "byteOffset": 6250344,
      "componentType": 5126,
      "count": 1818,
      "max": [
        2577.989990234375,
        3459.0,
        463.0
      ],
      "min": [
        2274.2099609375,
        2938.8798828125,
        174.0
      ],
      "type": "VEC3"
    },
    {
      "bufferView": 2,
      "byteOffset": 6272160,
      "componentType": 5126,
      "count": 1818,
      "max": [
        1.0,
        0.9999884963035583,
        1.0
      ],
      "min": [
        -0.9987866282463074,
        -0.9999884963035583,
        -1.0
      ],
      "type": "VEC3"
    },
    {
      "bufferView": 1,
      "byteOffset": 2083448,
      "componentType": 5126,
      "count": 1818,
      "max": [
        75.45020294189453,
        6.862170219421387
      ],
      "min": [
        -5.874989986419678,
        -6.388869762420654
      ],
      "type": "VEC2"
    },
    {
      "bufferView": 0,
      "byteOffset": 2016720,
      "componentType": 5125,
      "count": 2922,
      "type": "SCALAR"
    },
    {
      "bufferView": 2,
      "byteOffset": 6293976,
      "componentType": 5126,
      "count": 4323,
      "max": [
        3469.360107421875,
        3632.0,
        582.0
      ],
      "min": [
        2445.5,
        2610.43994140625,
        66.0
      ],
      "type": "VEC3"
    },
    {
      "bufferView": 2,
      "byteOffset": 6345852,
      "componentType": 5126,
      "count": 4323,
      "max": [
        1.0,
        1.0,
        1.0
      ],
      "min": [
        -1.0,
        -1.0,
        -1.0
      ],
      "type": "VEC3"
    },
    {
      "bufferView": 1,
      "byteOffset": 2097992,
      "componentType": 5126,
      "count": 4323,
      "max": [
        1.083340048789978,
        9.472220420837402
      ],
      "min": [
        -1.083340048789978,
        -8.421249842480247e-15
      ],
      "type": "VEC2"
    },
    {
      "bufferView": 0,
      "byteOffset": 2028408,
      "componentType": 5125,
      "count": 9912,
      "type": "SCALAR"
    },
    {
      "bufferView": 2,
      "byteOffset": 6397728,
      "componentType": 5126,
      "count": 4160,
      "max": [
        3469.360107421875,
        3631.97998046875,
        582.0
      ],
      "min": [
        2538.239990234375,
        2644.530029296875,
        85.5
      ],
      "type": "VEC3"
    },
    {
      "bufferView": 2,
      "byteOffset": 6447648,
      "componentType": 5126,
      "count": 4160,
      "max": [
        0.9999813437461853,
        0.9994869828224182,
        1.0
      ],
      "min": [
        -0.9999813437461853,
        -0.9994869828224182,
        -1.0
      ],
      "type": "VEC3"
    },
    {
      "bufferView": 1,
      "byteOffset": 2132576,
      "componentType": 5126,
      "count": 4160,
      "max": [
        1.083340048789978,
        0.1851850003004074
      ],
      "min": [
        -1.083340048789978,
        0.0
      ],
      "type": "VEC2"
    },
    {
      "bufferView": 0,
      "byteOffset": 2068056,
      "componentType": 5125,
      "count": 9984,
      "type": "SCALAR"
    },
    {
      "bufferView": 2,
      "byteOffset": 6497568,
      "componentType": 5126,
      "count": 4506,
      "max": [
        3469.39990234375,
        3632.0,
        582.0
      ],
      "min": [
        1678.25,
        1839.0,
        66.0
      ],
      "type": "VEC3"
    },
    {
      "bufferView": 2,
      "byteOffset": 6551640,
      "componentType": 5126,
      "count": 4506,
      "max": [
        1.0,
        1.0,
        1.0
      ],
      "min": [
        -1.0,
        -1.0,
        -1.0
      ],
      "type": "VEC3"
    },
    {
      "bufferView": 1,
      "byteOffset": 2165856,
      "componentType": 5126,
      "count": 4506,
      "max": [
        84.8427963256836,
        66.93589782714844
      ],
      "min": [
        -84.84220123291016,
        -3.368499936992099e-14
      ],
      "type": "VEC2"
    },
    {
      "bufferView": 0,
      "byteOffset": 2107992,
      "componentType": 5125,
      "count": 9063,
      "type": "SCALAR"
    },
    {
      "bufferView": 2,
      "byteOffset": 6605712,
      "componentType": 5126,
      "count": 3902,
      "max": [
        3210.679931640625,
        3723.60009765625,
        209.9929962158203
      ],
      "min": [
        2905.06005859375,
        3406.989990234375,
        187.82000732421875
      ],
      "type": "VEC3"
    },
    {
      "bufferView": 2,
      "byteOffset": 6652536,
      "componentType": 5126,
      "count": 3902,
      "max": [
        0.9228745698928833,
        0.9228745698928833,
        1.0
      ],
      "min": [
        -0.9707273840904236,
        -0.9225192666053772,
        -1.0
      ],
      "type": "VEC3"
    },
    {
      "bufferView": 1,
      "byteOffset": 2201904,
      "componentType": 5126,
      "count": 3902,
      "max": [
        17.96500015258789,
        26.25
      ],
      "min": [
        -563.72900390625,
        -17.284400939941406
      ],
      "type": "VEC2"
    },
    {
      "bufferView": 0,
      "byteOffset": 2144244,
      "componentType": 5125,
      "count": 7914,
      "type": "SCALAR"
    },
    {
      "bufferView": 2,
      "byteOffset": 6699360,
      "componentType": 5126,
      "count": 3264,
      "max": [
        3288.27001953125,
        3779.2099609375,
        210.0
      ],
      "min": [
        2812.989990234375,
        3345.510009765625,
        187.82699584960938
      ],
      "type": "VEC3"
    },
    {
      "bufferView": 2,
      "byteOffset": 6738528,
      "componentType": 5126,
      "count": 3264,
      "max": [
        0.9989978671073914,
        0.9979140162467957,
        1.0
      ],
      "min": [
        -0.9979234933853149,
        -0.997928261756897,
        -1.0
      ],
      "type": "VEC3"
    },
    {
      "bufferView": 1,
      "byteOffset": 2233120,
      "componentType": 5126,
      "count": 3264,
      "max": [
        262.4809875488281,
        561.9600219726563
      ],
      "min": [
        -683.60400390625,
        -555.2059936523438
      ],
      "type": "VEC2"
    },
    {
      "bufferView": 0,
      "byteOffset": 2175900,
      "componentType": 5125,
      "count": 5991,
      "type": "SCALAR"
    },
    {
      "bufferView": 2,
      "byteOffset": 6777696,
      "componentType": 5126,
      "count": 12719,
      "max": [
        3281.1298828125,
        3776.3701171875,
        210.5
      ],
      "min": [
        2790.989990234375,
        3400.739990234375,
        66.0
      ],
      "type": "VEC3"
    },
    {
      "bufferView": 2,
      "byteOffset": 6930324,
      "componentType": 5126,
      "count": 12719,
      "max": [
        1.0,
        1.0,
        1.0
      ],
      "min": [
        -1.0,
        -1.0,
        -1.0
      ],
      "type": "VEC3"
    },
    {
      "bufferView": 1,
      "byteOffset": 2259232,
      "componentType": 5126,
      "count": 12719,
      "max": [
        604.9500122070313,
        602.8350219726563
      ],
      "min": [
        -593.7230224609375,
        -596.0800170898438
      ],
      "type": "VEC2"
    },
    {
      "bufferView": 0,
      "byteOffset": 2199864,
      "componentType": 5125,
      "count": 20457,
      "type": "SCALAR"
    }
  ],
  "asset": {
    "extras": {
      "author": "The Cable Center (https://sketchfab.com/thecablecenter)",
      "license": "CC0-1.0 (http://creativecommons.org/publicdomain/zero/1.0/)",
      "source": "https://sketchfab.com/3d-models/the-cable-center-building-49d64e6fc8af49779411a398f9588ccd",
      "title": "The Cable Center Building"
    },
    "generator": "Sketchfab-12.67.0",
    "version": "2.0"
  },
  "bufferViews": [
    {
      "buffer": 0,
      "byteLength": 2281692,
      "name": "floatBufferViews",
      "target": 34963
    },
    {
      "buffer": 0,
      "byteLength": 2360984,
      "byteOffset": 2281692,
      "byteStride": 8,
      "name": "floatBufferViews",
      "target": 34962
    },
    {
      "buffer": 0,
      "byteLength": 7082952,
      "byteOffset": 4642676,
      "byteStride": 12,
      "name": "floatBufferViews",
      "target": 34962
    }
  ],
  "buffers": [
    {
      "byteLength": 11725628,
      "uri": "scene.bin"
    }
  ],
  "materials": [
    {
      "alphaMode": "BLEND",
      "doubleSided": true,
      "name": "BarcoStainedGlass",
      "pbrMetallicRoughness": {
        "baseColorFactor": [
          0.8313729763031006,
          0.800000011920929,
          0.7803919911384583,
          0.8
        ],
        "metallicFactor": 0.0,
        "roughnessFactor": 0.2
      }
    },
    {
      "doubleSided": true,
      "name": "Color_008",
      "pbrMetallicRoughness": {
        "baseColorFactor": [
          0.11764699965715408,
          0.11764699965715408,
          0.11764699965715408,
          1.0
        ],
        "metallicFactor": 0.0,
        "roughnessFactor": 0.2
      }
    },
    {
      "doubleSided": true,
      "name": "FrontColor",
      "pbrMetallicRoughness": {
        "metallicFactor": 0.0,
        "roughnessFactor": 0.2
      }
    },
    {
      "doubleSided": true,
      "name": "M_0136_Charcoal",
      "pbrMetallicRoughness": {
        "baseColorFactor": [
          0.137254998087883,
          0.137254998087883,
          0.137254998087883,
          1.0
        ],
        "metallicFactor": 0.0,
        "roughnessFactor": 0.2
      }
    },
    {
      "doubleSided": true,
      "name": "Metal_Aluminum_Anodized",
      "pbrMetallicRoughness": {
        "baseColorFactor": [
          0.792156994342804,
          0.8196079730987549,
          0.8588240146636963,
          1.0
        ],
        "metallicFactor": 0.0,
        "roughnessFactor": 0.2
      }
    },
    {
      "doubleSided": true,
      "name": "Metal_Aluminum_Anodized1",
      "pbrMetallicRoughness": {
        "baseColorFactor": [
          0.792156994342804,
          0.8196079730987549,
          0.8588240146636963,
          1.0
        ],
        "metallicFactor": 0.0,
        "roughnessFactor": 0.2
      }
    },
    {
      "doubleSided": true,
      "name": "material",
      "pbrMetallicRoughness": {
        "baseColorFactor": [
          0.3803919851779938,
          0.5764709711074829,
          0.8039219975471497,
          1.0
        ],
        "metallicFactor": 0.0,
        "roughnessFactor": 0.2
      }
    },
    {
      "doubleSided": true,
      "name": "Stone_Pavers_Walk",
      "pbrMetallicRoughness": {
        "baseColorFactor": [
          0.6352940201759338,
          0.6156859993934631,
          0.4392159879207611,
          1.0
        ],
        "metallicFactor": 0.0,
        "roughnessFactor": 0.2
      }
    },
    {
      "alphaMode": "BLEND",
      "doubleSided": true,
      "name": "Translucent_Glass_Blue",
      "pbrMetallicRoughness": {
        "baseColorFactor": [
          0.3921569883823395,
          0.5843139886856079,
          0.9294120073318481,
          0.5
        ],
        "metallicFactor": 0.0,
        "roughnessFactor": 0.2
      }
    },
    {
      "doubleSided": true,
      "name": "Wood_Cherry_Original",
      "pbrMetallicRoughness": {
        "baseColorFactor": [
          0.5960779786109924,
          0.33725500106811523,
          0.1647060066461563,
          1.0
        ],
        "metallicFactor": 0.0,
        "roughnessFactor": 0.2
      }
    },
    {
      "doubleSided": true,
      "name": "material_10",
      "pbrMetallicRoughness": {
        "baseColorFactor": [
          0.21176500618457794,
          0.21176500618457794,
          0.21176500618457794,
          1.0
        ],
        "metallicFactor": 0.0,
        "roughnessFactor": 0.2
      }
    },
    {
      "doubleSided": true,
      "name": "material_11",
      "pbrMetallicRoughness": {
        "baseColorFactor": [
          0.7098039984703064,
          0.7372549772262573,
          0.8509799838066101,
          1.0
        ],
        "metallicFactor": 0.0,
        "roughnessFactor": 0.2
      }
    },
    {
      "doubleSided": true,
      "name": "Metal_Aluminum_Anodized_1",
      "pbrMetallicRoughness": {
        "baseColorFactor": [
          0.792156994342804,
          0.8196079730987549,
          0.8588240146636963,
          1.0
        ],
        "metallicFactor": 0.0,
        "roughnessFactor": 0.2
      }
    },
    {
      "doubleSided": true,
      "name": "Metal_Aluminum_Anodized_2",
      "pbrMetallicRoughness": {
        "baseColorFactor": [
          0.792156994342804,
          0.8196079730987549,
          0.8588240146636963,
          1.0
        ],
        "metallicFactor": 0.0,
        "roughnessFactor": 0.2
      }
    },
    {
      "doubleSided": true,
      "name": "Metal_Aluminum_Anodized_3",
      "pbrMetallicRoughness": {
        "baseColorFactor": [
          0.792156994342804,
          0.8196079730987549,
          0.8588240146636963,
          1.0
        ],
        "metallicFactor": 0.0,
        "roughnessFactor": 0.2
      }
    },
    {
      "doubleSided": true,
      "name": "Metal_Aluminum_Anodized_4",
      "pbrMetallicRoughness": {
        "baseColorFactor": [
          0.792156994342804,
          0.8196079730987549,
          0.8588240146636963,
          1.0
        ],
        "metallicFactor": 0.0,
        "roughnessFactor": 0.2
      }
    },
    {
      "doubleSided": true,
      "name": "Metal_Rough_1",
      "pbrMetallicRoughness": {
        "baseColorFactor": [
          0.6000000238418579,
          0.6156859993934631,
          0.6274510025978088,
          1.0
        ],
        "metallicFactor": 0.0,
        "roughnessFactor": 0.2
      }
    }
  ],
  "meshes": [
    {
      "name": "Object_0",
      "primitives": [
        {
          "attributes": {
            "NORMAL": 1,
            "POSITION": 0,
            "TEXCOORD_0": 2
          },
          "indices": 3,
          "material": 0,
          "mode": 4
        }
      ]
    },
    {
      "name": "Object_1",
      "primitives": [
        {
          "attributes": {
            "NORMAL": 5,
            "POSITION": 4,
            "TEXCOORD_0": 6
          },
          "indices": 7,
          "material": 4,
          "mode": 4
        }
      ]
    },
    {
      "name": "Object_2",
      "primitives": [
        {
          "attributes": {
            "NORMAL": 9,
            "POSITION": 8,
            "TEXCOORD_0": 10
          },
          "indices": 11,
          "material": 5,
          "mode": 4
        }
      ]
    },
    {
      "name": "Object_3",
      "primitives": [
        {
          "attributes": {
            "NORMAL": 13,
            "POSITION": 12,
            "TEXCOORD_0": 14
          },
          "indices": 15,
          "material": 7,
          "mode": 4
        }
      ]
    },
    {
      "name": "Object_4",
      "primitives": [
        {
          "attributes": {
            "NORMAL": 17,
            "POSITION": 16,
            "TEXCOORD_0": 18
          },
          "indices": 19,
          "material": 10,
          "mode": 4
        }
      ]
    },
    {
      "name": "Object_5",
      "primitives": [
        {
          "attributes": {
            "NORMAL": 21,
            "POSITION": 20,
            "TEXCOORD_0": 22
          },
          "indices": 23,
          "material": 13,
          "mode": 4
        }
      ]
    },
    {
      "name": "Object_6",
      "primitives": [
        {
          "attributes": {
            "NORMAL": 25,
            "POSITION": 24,
            "TEXCOORD_0": 26
          },
          "indices": 27,
          "material": 14,
          "mode": 4
        }
      ]
    },
    {
      "name": "Object_7",
      "primitives": [
        {
          "attributes": {
            "NORMAL": 29,
            "POSITION": 28,
            "TEXCOORD_0": 30
          },
          "indices": 31,
          "material": 1,
          "mode": 4
        }
      ]
    },
    {
      "name": "Object_8",
      "primitives": [
        {
          "attributes": {
            "NORMAL": 33,
            "POSITION": 32,
            "TEXCOORD_0": 34
          },
          "indices": 35,
          "material": 2,
          "mode": 4
        }
      ]
    },
    {
      "name": "Object_9",
      "primitives": [
        {
          "attributes": {
            "NORMAL": 37,
            "POSITION": 36,
            "TEXCOORD_0": 38
          },
          "indices": 39,
          "material": 2,
          "mode": 4
        }
      ]
    },
    {
      "name": "Object_10",
      "primitives": [
        {
          "attributes": {
            "NORMAL": 41,
            "POSITION": 40,
            "TEXCOORD_0": 42
          },
          "indices": 43,
          "material": 2,
          "mode": 4
        }
      ]
    },
    {
      "name": "Object_11",
      "primitives": [
        {
          "attributes": {
            "NORMAL": 45,
            "POSITION": 44,
            "TEXCOORD_0": 46
          },
          "indices": 47,
          "material": 2,
          "mode": 4
        }
      ]
    },
    {
      "name": "Object_12",
      "primitives": [
        {
          "attributes": {
            "NORMAL": 49,
            "POSITION": 48,
            "TEXCOORD_0": 50
          },
          "indices": 51,
          "material": 2,
          "mode": 4
        }
      ]
    },
    {
      "name": "Object_13",
      "primitives": [
        {
          "attributes": {
            "NORMAL": 53,
            "POSITION": 52,
            "TEXCOORD_0": 54
          },
          "indices": 55,
          "material": 2,
          "mode": 4
        }
      ]
    },
    {
      "name": "Object_14",
      "primitives": [
        {
          "attributes": {
            "NORMAL": 57,
            "POSITION": 56,
            "TEXCOORD_0": 58
          },
          "indices": 59,
          "material": 2,
          "mode": 4
        }
      ]
    },
    {
      "name": "Object_15",
      "primitives": [
        {
          "attributes": {
            "NORMAL": 61,
            "POSITION": 60,
            "TEXCOORD_0": 62
          },
          "indices": 63,
          "material": 2,
          "mode": 4
        }
      ]
    },
    {
      "name": "Object_16",
      "primitives": [
        {
          "attributes": {
            "NORMAL": 65,
            "POSITION": 64,
            "TEXCOORD_0": 66
          },
          "indices": 67,
          "material": 2,
          "mode": 4
        }
      ]
    },
    {
      "name": "Object_17",
      "primitives": [
        {
          "attributes": {
            "NORMAL": 69,
            "POSITION": 68,
            "TEXCOORD_0": 70
          },
          "indices": 71,
          "material": 2,
          "mode": 4
        }
      ]
    },
    {
      "name": "Object_18",
      "primitives": [
        {
          "attributes": {
            "NORMAL": 73,
            "POSITION": 72,
            "TEXCOORD_0": 74
          },
          "indices": 75,
          "material": 2,
          "mode": 4
        }
      ]
    },
    {
      "name": "Object_19",
      "primitives": [
        {
          "attributes": {
            "NORMAL": 77,
            "POSITION": 76,
            "TEXCOORD_0": 78
          },
          "indices": 79,
          "material": 2,
          "mode": 4
        }
      ]
    },
    {
      "name": "Object_20",
      "primitives": [
        {
          "attributes": {
            "NORMAL": 81,
            "POSITION": 80,
            "TEXCOORD_0": 82
          },
          "indices": 83,
          "material": 2,
          "mode": 4
        }
      ]
    },
    {
      "name": "Object_21",
      "primitives": [
        {
          "attributes": {
            "NORMAL": 85,
            "POSITION": 84,
            "TEXCOORD_0": 86
          },
          "indices": 87,
          "material": 2,
          "mode": 4
        }
      ]
    },
    {
      "name": "Object_22",
      "primitives": [
        {
          "attributes": {
            "NORMAL": 89,
            "POSITION": 88,
            "TEXCOORD_0": 90
          },
          "indices": 91,
          "material": 2,
          "mode": 4
        }
      ]
    },
    {
      "name": "Object_23",
      "primitives": [
        {
          "attributes": {
            "NORMAL": 93,
            "POSITION": 92,
            "TEXCOORD_0": 94
          },
          "indices": 95,
          "material": 2,
          "mode": 4
        }
      ]
    },
    {
      "name": "Object_24",
      "primitives": [
        {
          "attributes": {
            "NORMAL": 97,
            "POSITION": 96,
            "TEXCOORD_0": 98
          },
          "indices": 99,
          "material": 2,
          "mode": 4
        }
      ]
    },
    {
      "name": "Object_25",
      "primitives": [
        {
          "attributes": {
            "NORMAL": 101,
            "POSITION": 100,
            "TEXCOORD_0": 102
          },
          "indices": 103,
          "material": 2,
          "mode": 4
        }
      ]
    },
    {
      "name": "Object_26",
      "primitives": [
        {
          "attributes": {
            "NORMAL": 105,
            "POSITION": 104,
            "TEXCOORD_0": 106
          },
          "indices": 107,
          "material": 2,
          "mode": 4
        }
      ]
    },
    {
      "name": "Object_27",
      "primitives": [
        {
          "attributes": {
            "NORMAL": 109,
            "POSITION": 108,
            "TEXCOORD_0": 110
          },
          "indices": 111,
          "material": 2,
          "mode": 4
        }
      ]
    },
    {
      "name": "Object_28",
      "primitives": [
        {
          "attributes": {
            "NORMAL": 113,
            "POSITION": 112,
            "TEXCOORD_0": 114
          },
          "indices": 115,
          "material": 2,
          "mode": 4
        }
      ]
    },
    {
      "name": "Object_29",
      "primitives": [
        {
          "attributes": {
            "NORMAL": 117,
            "POSITION": 116,
            "TEXCOORD_0": 118
          },
          "indices": 119,
          "material": 2,
          "mode": 4
        }
      ]
    },
    {
      "name": "Object_30",
      "primitives": [
        {
          "attributes": {
            "NORMAL": 121,
            "POSITION": 120,
            "TEXCOORD_0": 122
          },
          "indices": 123,
          "material": 2,
          "mode": 4
        }
      ]
    },
    {
      "name": "Object_31",
      "primitives": [
        {
          "attributes": {
            "NORMAL": 125,
            "POSITION": 124,
            "TEXCOORD_0": 126
          },
          "indices": 127,
          "material": 2,
          "mode": 4
        }
      ]
    },
    {
      "name": "Object_32",
      "primitives": [
        {
          "attributes": {
            "NORMAL": 129,
            "POSITION": 128,
            "TEXCOORD_0": 130
          },
          "indices": 131,
          "material": 2,
          "mode": 4
        }
      ]
    },
    {
      "name": "Object_33",
      "primitives": [
        {
          "attributes": {
            "NORMAL": 133,
            "POSITION": 132,
            "TEXCOORD_0": 134
          },
          "indices": 135,
          "material": 2,
          "mode": 4
        }
      ]
    },
    {
      "name": "Object_34",
      "primitives": [
        {
          "attributes": {
            "NORMAL": 137,
            "POSITION": 136,
            "TEXCOORD_0": 138
          },
          "indices": 139,
          "material": 2,
          "mode": 4
        }
      ]
    },
    {
      "name": "Object_35",
      "primitives": [
        {
          "attributes": {
            "NORMAL": 141,
            "POSITION": 140,
            "TEXCOORD_0": 142
          },
          "indices": 143,
          "material": 2,
          "mode": 4
        }
      ]
    },
    {
      "name": "Object_36",
      "primitives": [
        {
          "attributes": {
            "NORMAL": 145,
            "POSITION": 144,
            "TEXCOORD_0": 146
          },
          "indices": 147,
          "material": 2,
          "mode": 4
        }
      ]
    },
    {
      "name": "Object_37",
      "primitives": [
        {
          "attributes": {
            "NORMAL": 149,
            "POSITION": 148,
            "TEXCOORD_0": 150
          },
          "indices": 151,
          "material": 2,
          "mode": 4
        }
      ]
    },
    {
      "name": "Object_38",
      "primitives": [
        {
          "attributes": {
            "NORMAL": 153,
            "POSITION": 152,
            "TEXCOORD_0": 154
          },
          "indices": 155,
          "material": 2,
          "mode": 4
        }
      ]
    },
    {
      "name": "Object_39",
      "primitives": [
        {
          "attributes": {
            "NORMAL": 157,
            "POSITION": 156,
            "TEXCOORD_0": 158
          },
          "indices": 159,
          "material": 2,
          "mode": 4
        }
      ]
    },
    {
      "name": "Object_40",
      "primitives": [
        {
          "attributes": {
            "NORMAL": 161,
            "POSITION": 160,
            "TEXCOORD_0": 162
          },
          "indices": 163,
          "material": 2,
          "mode": 4
        }
      ]
    },
    {
      "name": "Object_41",
      "primitives": [
        {
          "attributes": {
            "NORMAL": 165,
            "POSITION": 164,
            "TEXCOORD_0": 166
          },
          "indices": 167,
          "material": 2,
          "mode": 4
        }
      ]
    },
    {
      "name": "Object_42",
      "primitives": [
        {
          "attributes": {
            "NORMAL": 169,
            "POSITION": 168,
            "TEXCOORD_0": 170
          },
          "indices": 171,
          "material": 2,
          "mode": 4
        }
      ]
    },
    {
      "name": "Object_43",
      "primitives": [
        {
          "attributes": {
            "NORMAL": 173,
            "POSITION": 172,
            "TEXCOORD_0": 174
          },
          "indices": 175,
          "material": 2,
          "mode": 4
        }
      ]
    },
    {
      "name": "Object_44",
      "primitives": [
        {
          "attributes": {
            "NORMAL": 177,
            "POSITION": 176,
            "TEXCOORD_0": 178
          },
          "indices": 179,
          "material": 2,
          "mode": 4
        }
      ]
    },
    {
      "name": "Object_45",
      "primitives": [
        {
          "attributes": {
            "NORMAL": 181,
            "POSITION": 180,
            "TEXCOORD_0": 182
          },
          "indices": 183,
          "material": 2,
          "mode": 4
        }
      ]
    },
    {
      "name": "Object_46",
      "primitives": [
        {
          "attributes": {
            "NORMAL": 185,
            "POSITION": 184,
            "TEXCOORD_0": 186
          },
          "indices": 187,
          "material": 2,
          "mode": 4
        }
      ]
    },
    {
      "name": "Object_47",
      "primitives": [
        {
          "attributes": {
            "NORMAL": 189,
            "POSITION": 188,
            "TEXCOORD_0": 190
          },
          "indices": 191,
          "material": 2,
          "mode": 4
        }
      ]
    },
    {
      "name": "Object_48",
      "primitives": [
        {
          "attributes": {
            "NORMAL": 193,
            "POSITION": 192,
            "TEXCOORD_0": 194
          },
          "indices": 195,
          "material": 2,
          "mode": 4
        }
      ]
    },
    {
      "name": "Object_49",
      "primitives": [
        {
          "attributes": {
            "NORMAL": 197,
            "POSITION": 196,
            "TEXCOORD_0": 198
          },
          "indices": 199,
          "material": 2,
          "mode": 4
        }
      ]
    },
    {
      "name": "Object_50",
      "primitives": [
        {
          "attributes": {
            "NORMAL": 201,
            "POSITION": 200,
            "TEXCOORD_0": 202
          },
          "indices": 203,
          "material": 2,
          "mode": 4
        }
      ]
    },
    {
      "name": "Object_51",
      "primitives": [
        {
          "attributes": {
            "NORMAL": 205,
            "POSITION": 204,
            "TEXCOORD_0": 206
          },
          "indices": 207,
          "material": 3,
          "mode": 4
        }
      ]
    },
    {
      "name": "Object_52",
      "primitives": [
        {
          "attributes": {
            "NORMAL": 209,
            "POSITION": 208,
            "TEXCOORD_0": 210
          },
          "indices": 211,
          "material": 6,
          "mode": 4
        }
      ]
    },
    {
      "name": "Object_53",
      "primitives": [
        {
          "attributes": {
            "NORMAL": 213,
            "POSITION": 212,
            "TEXCOORD_0": 214
          },
          "indices": 215,
          "material": 8,
          "mode": 4
        }
      ]
    },
    {
      "name": "Object_54",
      "primitives": [
        {
          "attributes": {
            "NORMAL": 217,
            "POSITION": 216,
            "TEXCOORD_0": 218
          },
          "indices": 219,
          "material": 9,
          "mode": 4
        }
      ]
    },
    {
      "name": "Object_55",
      "primitives": [
        {
          "attributes": {
            "NORMAL": 221,
            "POSITION": 220,
            "TEXCOORD_0": 222
          },
          "indices": 223,
          "material": 11,
          "mode": 4
        }
      ]
    },
    {
      "name": "Object_56",
      "primitives": [
        {
          "attributes": {
            "NORMAL": 225,
            "POSITION": 224,
            "TEXCOORD_0": 226
          },
          "indices": 227,
          "material": 12,
          "mode": 4
        }
      ]
    },
    {
      "name": "Object_57",
      "primitives": [
        {
          "attributes": {
            "NORMAL": 229,
            "POSITION": 228,
            "TEXCOORD_0": 230
          },
          "indices": 231,
          "material": 15,
          "mode": 4
        }
      ]
    },
    {
      "name": "Object_58",
      "primitives": [
        {
          "attributes": {
            "NORMAL": 233,
            "POSITION": 232,
            "TEXCOORD_0": 234
          },
          "indices": 235,
          "material": 15,
          "mode": 4
        }
      ]
    },
    {
      "name": "Object_59",
      "primitives": [
        {
          "attributes": {
            "NORMAL": 237,
            "POSITION": 236,
            "TEXCOORD_0": 238
          },
          "indices": 239,
          "material": 15,
          "mode": 4
        }
      ]
    },
    {
      "name": "Object_60",
      "primitives": [
        {
          "attributes": {
            "NORMAL": 241,
            "POSITION": 240,
            "TEXCOORD_0": 242
          },
          "indices": 243,
          "material": 16,
          "mode": 4
        }
      ]
    },
    {
      "name": "Object_61",
      "primitives": [
        {
          "attributes": {
            "NORMAL": 245,
            "POSITION": 244,
            "TEXCOORD_0": 246
          },
          "indices": 247,
          "material": 16,
          "mode": 4
        }
      ]
    },
    {
      "name": "Object_62",
      "primitives": [
        {
          "attributes": {
            "NORMAL": 249,
            "POSITION": 248,
            "TEXCOORD_0": 250
          },
          "indices": 251,
          "material": 16,
          "mode": 4
        }
      ]
    }
  ],
  "nodes": [
    {
      "children": [
        1
      ],
      "matrix": [
        0.01339591946452856,
        0.0,
        0.0,
        0.0,
        0.0,
        2.9744916451087812e-18,
        -0.01339591946452856,
        0.0,
        0.0,
        0.01339591946452856,
        2.9744916451087812e-18,
        0.0,
        0.0,
        0.0,
        0.0,
        1.0
      ],
      "name": "Sketchfab_model"
    },
    {
      "children": [
        2,
        3,
        4,
        5,
        6,
        7,
        8,
        9,
        10,
        11,
        12,
        13,
        14,
        15,
        16,
        17,
        18,
        19,
        20,
        21,
        22,
        23,
        24,
        25,
        26,
        27,
        28,
        29,
        30,
        31,
        32,
        33,
        34,
        35,
        36,
        37,
        38,
        39,
        40,
        41,
        42,
        43,
        44,
        45,
        46,
        47,
        48,
        49,
        50,
        51,
        52,
        53,
        54,
        55,
        56,
        57,
        58,
        59,
        60,
        61,
        62,
        63,
        64
      ],
      "name": "The Cable Center [in prog-6].obj.cleaner.gles"
    },
    {
      "mesh": 0,
      "name": "Object_2"
    },
    {
      "mesh": 1,
      "name": "Object_3"
    },
    {
      "mesh": 2,
      "name": "Object_4"
    },
    {
      "mesh": 3,
      "name": "Object_5"
    },
    {
      "mesh": 4,
      "name": "Object_6"
    },
    {
      "mesh": 5,
      "name": "Object_7"
    },
    {
      "mesh": 6,
      "name": "Object_8"
    },
    {
      "mesh": 7,
      "name": "Object_9"
    },
    {
      "mesh": 8,
      "name": "Object_10"
    },
    {
      "mesh": 9,
      "name": "Object_11"
    },
    {
      "mesh": 10,
      "name": "Object_12"
    },
    {
      "mesh": 11,
      "name": "Object_13"
    },
    {
      "mesh": 12,
      "name": "Object_14"
    },
    {
      "mesh": 13,
      "name": "Object_15"
    },
    {
      "mesh": 14,
      "name": "Object_16"
    },
    {
      "mesh": 15,
      "name": "Object_17"
    },
    {
      "mesh": 16,
      "name": "Object_18"
    },
    {
      "mesh": 17,
      "name": "Object_19"
    },
    {
      "mesh": 18,
      "name": "Object_20"
    },
    {
      "mesh": 19,
      "name": "Object_21"
    },
    {
      "mesh": 20,
      "name": "Object_22"
    },
    {
      "mesh": 21,
      "name": "Object_23"
    },
    {
      "mesh": 22,
      "name": "Object_24"
    },
    {
      "mesh": 23,
      "name": "Object_25"
    },
    {
      "mesh": 24,
      "name": "Object_26"
    },
    {
      "mesh": 25,
      "name": "Object_27"
    },
    {
      "mesh": 26,
      "name": "Object_28"
    },
    {
      "mesh": 27,
      "name": "Object_29"
    },
    {
      "mesh": 28,
      "name": "Object_30"
    },
    {
      "mesh": 29,
      "name": "Object_31"
    },
    {
      "mesh": 30,
      "name": "Object_32"
    },
    {
      "mesh": 31,
      "name": "Object_33"
    },
    {
      "mesh": 32,
      "name": "Object_34"
    },
    {
      "mesh": 33,
      "name": "Object_35"
    },
    {
      "mesh": 34,
      "name": "Object_36"
    },
    {
      "mesh": 35,
      "name": "Object_37"
    },
    {
      "mesh": 36,
      "name": "Object_38"
    },
    {
      "mesh": 37,
      "name": "Object_39"
    },
    {
      "mesh": 38,
      "name": "Object_40"
    },
    {
      "mesh": 39,
      "name": "Object_41"
    },
    {
      "mesh": 40,
      "name": "Object_42"
    },
    {
      "mesh": 41,
      "name": "Object_43"
    },
    {
      "mesh": 42,
      "name": "Object_44"
    },
    {
      "mesh": 43,
      "name": "Object_45"
    },
    {
      "mesh": 44,
      "name": "Object_46"
    },
    {
      "mesh": 45,
      "name": "Object_47"
    },
    {
      "mesh": 46,
      "name": "Object_48"
    },
    {
      "mesh": 47,
      "name": "Object_49"
    },
    {
      "mesh": 48,
      "name": "Object_50"
    },
    {
      "mesh": 49,
      "name": "Object_51"
    },
    {
      "mesh": 50,
      "name": "Object_52"
    },
    {
      "mesh": 51,
      "name": "Object_53"
    },
    {
      "mesh": 52,
      "name": "Object_54"
    },
    {
      "mesh": 53,
      "name": "Object_55"
    },
    {
      "mesh": 54,
      "name": "Object_56"
    },
    {
      "mesh": 55,
      "name": "Object_57"
    },
    {
      "mesh": 56,
      "name": "Object_58"
    },
    {
      "mesh": 57,
      "name": "Object_59"
    },
    {
      "mesh": 58,
      "name": "Object_60"
    },
    {
      "mesh": 59,
      "name": "Object_61"
    },
    {
      "mesh": 60,
      "name": "Object_62"
    },
    {
      "mesh": 61,
      "name": "Object_63"
    },
    {
      "mesh": 62,
      "name": "Object_64"
    }
  ],
  "scene": 0,
  "scenes": [
    {
      "name": "Sketchfab_Scene",
      "nodes": [
        0
      ]
    }
  ]
}
